<svg id="92228acd-2c42-4626-85e1-7a763ecea889" data-name="group" xmlns="http://www.w3.org/2000/svg" xmlns:xlink="http://www.w3.org/1999/xlink" viewBox="0 0 175.17099 149.17098"><defs><linearGradient id="4ac056e3-3d3b-4db9-83bf-7eb2dcde55d9" x1="-84.84324" y1="-49" x2="-83.84324" y2="-49" gradientTransform="matrix(0, 43.74647, -43.87883, 0, -2062.85016, 3740.85626)" gradientUnits="userSpaceOnUse"><stop offset="0" stop-color="#5ca3d9"/><stop offset="0.24984" stop-color="#5ca3d9"/><stop offset="0.69065" stop-color="#3fb299"/><stop offset="1" stop-color="#3fb299"/></linearGradient></defs><title>iot-gg-groups-icon</title><path d="M64.54585,21.47057c0-.67764-.28046-1.36868-.28046-2.07,0-5.96183,3.98216-12.82529,9.7834-15.2748A16.50532,16.50532,0,0,1,92.74685,7.84611a19.98041,19.98041,0,0,1,4.57922,7.5164l-.00981-.00052c3.7957-5.12249,13.73044-3.0494,12.90767,5.761l-.02222.13285c3.86026.66168,10.66144,3.379,10.66144,11.89431,0,11.00554-10.961,11.99162-10.961,11.99162L66.0726,45.09441a11.961,11.961,0,0,1-4.84676-1.02213,12.47147,12.47147,0,0,1-5.857-11.02357c0-7.278,4.17586-10.49937,9.177-11.58225Z" style="fill:#fff"/><path d="M64.54585,21.47057h.651a5.791,5.791,0,0,0-.15326-1.15573,4.71665,4.71665,0,0,1-.1272-.91428,16.75076,16.75076,0,0,1,2.61809-8.61077A15.19093,15.19093,0,0,1,74.302,4.72548a16.72655,16.72655,0,0,1,6.53822-1.38241A16.19648,16.19648,0,0,1,92.28651,8.30642a19.3333,19.3333,0,0,1,4.42592,7.27343l.61365-.21735.03436-.65009-.00981-.00052-.03436.65009.52306.38757a6.37147,6.37147,0,0,1,5.17619-2.49261,6.46156,6.46156,0,0,1,6.60555,6.85443q0,.45881-.04532.95111l.64819.0605-.64209-.10738-.02222.13285a.65223.65223,0,0,0,.5321.749,13.97772,13.97772,0,0,1,6.47054,2.85966,10.34911,10.34911,0,0,1,3.64989,8.393,11.3506,11.3506,0,0,1-1.61333,6.171,11.08773,11.08773,0,0,1-5.46571,4.322,14.6069,14.6069,0,0,1-2.35066.69746c-.29857.06145-.53827.10013-.70082.12319l-.18364.0238-.05417.00581.05833.64838.0007-.651L66.0733,44.44341a14.28664,14.28664,0,0,1-2.37689-.25034,6.9199,6.9199,0,0,1-2.12462-.67226,11.85769,11.85769,0,0,1-3.62007-3.53819,12.405,12.405,0,0,1-1.93193-6.93391c.00414-3.518.99661-5.95606,2.54549-7.67826a11.24079,11.24079,0,0,1,6.11833-3.26774l-.13776-.63625h-.651v.00411a.651.651,0,1,0,1.302,0h0v-.00411a.651.651,0,0,0-.78876-.63626,12.53178,12.53178,0,0,0-6.80962,3.6682,12.29223,12.29223,0,0,0-2.88066,8.55032,13.71449,13.71449,0,0,0,2.14322,7.645,13.15612,13.15612,0,0,0,4.01874,3.93,7.94975,7.94975,0,0,0,2.57777.8493,15.50159,15.50159,0,0,0,2.61453.27244l43.82938.04737.059-.00262a15.14572,15.14572,0,0,0,5.7538-1.95692,11.63432,11.63432,0,0,0,3.98788-3.82079,12.656,12.656,0,0,0,1.812-6.86229,11.66829,11.66829,0,0,0-4.11635-9.39156,15.25569,15.25569,0,0,0-7.08611-3.14439l-.11.64165.64207.10738.02222-.13285.0061-.04688q.05141-.55077.05093-1.07211a7.76,7.76,0,0,0-7.90753-8.15643,7.673,7.673,0,0,0-6.22232,3.01946.651.651,0,0,0,.48869,1.03766l.00981.00052a.651.651,0,0,0,.648-.86744,20.62776,20.62776,0,0,0-4.73248-7.75932,17.49929,17.49929,0,0,0-12.367-5.34475,18.03033,18.03033,0,0,0-7.04471,1.485,16.47954,16.47954,0,0,0-7.36674,6.57624,18.0362,18.0362,0,0,0-2.81439,9.29828,5.85745,5.85745,0,0,0,.15326,1.17348,4.67592,4.67592,0,0,1,.1272.89652.651.651,0,1,0,1.302,0Z" style="fill:#5ca3d9"/><path d="M87.21232,129.27071v.973A71.2302,71.2302,0,0,0,158.69584,59.099c-.00011-2.26977-.11067-4.57076-.31908-6.60826l-.08946-.87394H112.43324v.973a25.22185,25.22185,0,0,1-50.44183,0v-.973H16.13733l-.08945.87394c-.20838,2.03716-.319,4.32718-.31908,6.59694a71.23983,71.23983,0,0,0,71.48352,71.156v-1.946a69.29383,69.29383,0,0,1-69.53751-69.21c-.00011-2.206.10829-4.43909.309-6.39881l-.96794-.09906v.973H61.01841v-.973h-.973a27.167,27.167,0,0,0,54.33383,0h-.973v.973h44.00258v-.973l-.968.09906c.20065,1.95937.30908,4.20415.309,6.41013A69.2835,69.2835,0,0,1,87.21232,128.2977Z" style="fill:#dbedfa"/><path d="M12.52741,52.41218q-.0281.25134-.0531.51128a.973.973,0,1,0,1.93686.18846q.02428-.24976.05019-.48355a.973.973,0,0,0-1.93394-.21619Z" style="fill:#d9eeea"/><path d="M84.99642,132.11867a.973.973,0,0,0-.02779,1.9456q.9863.02875,1.97879.0322h.00346a.973.973,0,0,0,.00325-1.946q-.96744-.0033-1.9288-.03142l-.02892-.00041m9.759-.34406q-.04877,0-.09833.00493-.95737.09608-1.92189.16759a.973.973,0,0,0,.07086,1.94337q.03625,0,.073-.0027v.00006q.9898-.07345,1.97235-.172a.973.973,0,0,0-.096-1.94122m-17.5462-.28838a.97305.97305,0,0,0-.1281,1.93747q.97886.13119,1.96564.23724a.9871.9871,0,0,0,.10515.00565.973.973,0,0,0,.10275-1.94046q-.96135-.10332-1.915-.23117a.98171.98171,0,0,0-.13043-.00873m25.26817-.898a.97639.97639,0,0,0-.19917.0206q-.94238.19592-1.89352.36772a.973.973,0,1,0,.34586,1.91507q.97643-.17638,1.94389-.37759a.9731.9731,0,0,0-.19705-1.9258m-32.94586-.54559a.97314.97314,0,0,0-.22916,1.91867q.96027.23355,1.93016.44255a.973.973,0,0,0,.40977-1.90244q-.9446-.20348-1.88-.431a.97586.97586,0,0,0-.23074-.02779m40.49969-1.44739a.97218.97218,0,0,0-.29787.04691q-.91683.29453-1.844.56561a.973.973,0,1,0,.54594,1.86786q.95194-.27827,1.89333-.58078a.97314.97314,0,0,0-.29736-1.8996m-47.98209-.79837a.97315.97315,0,0,0-.32866,1.88905q.93066.334,1.87262.64412a.973.973,0,1,0,.60858-1.84837q-.91743-.30208-1.82393-.62735a.97111.97111,0,0,0-.32861-.05745m55.29314-1.98674a.96942.96942,0,0,0-.39359.08365q-.88326.39118-1.7787.75983a.973.973,0,1,0,.7406,1.79955h.00008q.91935-.37839,1.82625-.78021a.97314.97314,0,0,0-.39464-1.86281M54.856,124.77686a.97318.97318,0,0,0-.42427,1.84923q.88781.4292,1.78851.83575a.973.973,0,0,0,.80054-1.77367q-.87726-.39592-1.74194-.81409a.96948.96948,0,0,0-.42284-.09723m69.459-2.5087a.9686.9686,0,0,0-.48506.1302q-.83652.48223-1.68692.9429a.973.973,0,1,0,.927,1.71111q.873-.473,1.73189-.96811a.97313.97313,0,0,0-.48686-1.8161m-76.29715-1.25568a.97313.97313,0,0,0-.5145,1.79961q.83876.5211,1.69209,1.0208a.973.973,0,0,0,.9832-1.67937q-.83121-.48658-1.64816-.99429a.96822.96822,0,0,0-.51263-.14674m82.85506-3.00125a.96856.96856,0,0,0-.57135.18605q-.7806.56747-1.57681,1.11473a.973.973,0,1,0,1.10228,1.60371q.81736-.56174,1.6188-1.14439a.973.973,0,0,0-.57292-1.7601M41.611,116.54691a.973.973,0,0,0-.59828,1.74088q.78.60722,1.5765,1.19418a.973.973,0,1,0,1.15452-1.5665q-.77577-.57179-1.53573-1.16328a.96887.96887,0,0,0-.597-.20528m95.33354-3.4581a.96927.96927,0,0,0-.65143.25056q-.71638.64613-1.44975,1.27359a.973.973,0,1,0,1.265,1.47877q.75293-.64407,1.48825-1.30745a.973.973,0,0,0-.652-1.69548m-101.2375-1.65823a.973.973,0,0,0-.67515,1.67369q.71259.68655,1.4433,1.35435a.973.973,0,1,0,1.31281-1.43646q-.71171-.65048-1.40594-1.31926a.96975.96975,0,0,0-.675-.27232m106.7561-3.87393a.97043.97043,0,0,0-.72446.32315q-.64407.71761-1.30675,1.418a.973.973,0,1,0,1.41351,1.33745q.68026-.719,1.34151-1.45575a.973.973,0,0,0-.72382-1.62286M30.37229,105.71982a.97307.97307,0,0,0-.74462,1.5988q.63712.75845,1.29379,1.4998a.973.973,0,0,0,1.45665-1.29042q-.63963-.722-1.26025-1.46091a.97091.97091,0,0,0-.74557-.34727M147.36653,101.476a.97146.97146,0,0,0-.78944.4032q-.56447.78108-1.149,1.54663a.973.973,0,1,0,1.54669,1.181h-.00006q.60017-.78591,1.17969-1.58791a.97309.97309,0,0,0-.78789-1.543M25.66825,99.47649a.97312.97312,0,0,0-.80611,1.51662l-.00006.00006q.55391.8224,1.129,1.62926A.973.973,0,0,0,27.5758,101.493q-.56011-.78584-1.09963-1.58688a.972.972,0,0,0-.80792-.42963M151.5978,94.91393a.97252.97252,0,0,0-.84544.49q-.47825.83595-.97786,1.6579a.973.973,0,1,0,1.66293,1.01082v-.00008q.51288-.84386,1.004-1.70233a.97326.97326,0,0,0-.84367-1.45631M21.6511,92.76785a.97333.97333,0,0,0-.85937,1.42795q.46393.87776.95057,1.7415a.973.973,0,0,0,1.6955-.95508q-.47381-.84119-.92574-1.69589a.97275.97275,0,0,0-.861-.51848m133.45524-4.82471a.97321.97321,0,0,0-.89169.58273q-.38624.88142-.79506,1.75046a.973.973,0,1,0,1.761.82828q.41972-.89246.81647-1.79761a.97357.97357,0,0,0-.89069-1.36386m-136.736-2.27635a.97359.97359,0,0,0-.90353,1.33356q.36814.92358.76015,1.83488a.973.973,0,0,0,1.78767-.76886q-.38168-.88733-.74022-1.78665a.97332.97332,0,0,0-.90408-.61293m139.48232-5.03229a.97335.97335,0,0,0-.92749.68011q-.29093.92088-.60555,1.83095a.973.973,0,1,0,1.83922.63574q.32307-.93464.62193-1.88037a.97381.97381,0,0,0-.92812-1.26643M15.86887,78.25939a.97384.97384,0,0,0-.93773,1.23484q.26665.95544.55794,1.90044a.973.973,0,1,0,1.85973-.57317q-.28368-.92-.54337-1.85044a.97332.97332,0,0,0-.93657-.71167m143.93472-5.18973a.97335.97335,0,0,0-.9528.78084q-.191.94711-.40642,1.88514a.973.973,0,1,0,1.89662.43552q.22117-.96327.41745-1.936a.97387.97387,0,0,0-.95485-1.16553M14.17417,70.63288a.97379.97379,0,0,0-.96085,1.1333v.00006q.16332.97876.352,1.94887a.973.973,0,1,0,1.91023-.37134q-.18364-.9446-.34277-1.89791a.97338.97338,0,0,0-.9586-.813M160.9385,65.34043a.973.973,0,0,0-.96764.883q-.0897.9626-.20409,1.91778a.973.973,0,0,0,.85033,1.08189.98309.98309,0,0,0,.117.007.97316.97316,0,0,0,.96487-.8574q.11746-.9806.2095-1.969a.973.973,0,0,0-.87865-1.059c-.03064-.00285-.06113-.00425-.09129-.00425M13.29808,62.86991c-.01952,0-.03909.00058-.05883.00176a.973.973,0,0,0-.91335,1.02926q.05911.99084.14391,1.97479a.97307.97307,0,0,0,.96825.88958c.028,0,.05618-.0012.08461-.00365a.97292.97292,0,0,0,.88593-1.05286q-.08252-.95834-.14016-1.92377a.97312.97312,0,0,0-.97037-.91511M161.25485,57.5338l-.01167.00007a.973.973,0,0,0-.96141.9845c.00348.29419.00522.58652.00522.87523q0,.52808-.00748,1.05441a.973.973,0,0,0,.95908.98669l.01407.0001a.973.973,0,0,0,.97263-.95918q.00764-.54017.00768-1.082c0-.29659-.00174-.59652-.00536-.89826a.973.973,0,0,0-.97275-.96153M13.23768,55.05655a.973.973,0,0,0-.97132.93043c-.02863.65244-.04921,1.31733-.06147,1.97867a.973.973,0,0,0,.95477.99088l.01834.00018a.973.973,0,0,0,.97253-.955c.01193-.645.03206-1.294.05992-1.92952A.97293.97293,0,0,0,13.281,55.0575l-.04337-.001" style="fill:#d9ebe5"/><path d="M161.95024,52.92342q-.02531-.26-.05312-.51129a.973.973,0,1,0-1.93393.21629q.02612.23365.0502.48353a.973.973,0,0,0,1.93686-.18852Z" style="fill:#d9eeea"/><path d="M9.91509,52.52028c-.01807.16168-.03512.328-.05165.49741" style="fill:#d9eeea"/><path d="M8.94811,52.41218c-.01875.16778-.03624.33852-.05308.511a.973.973,0,0,0,1.93681.189c.01622-.16635.03282-.32825.05022-.48383a.973.973,0,0,0-1.93394-.21619Z" style="fill:#d9eeea"/><path d="M88.71189,136.03709l-.01859.00017q-.73881.01394-1.4809.01387-.22419,0-.448-.00122l-.00562,0a.973.973,0,0,0-.00542,1.946q.22929.00126.459.0013.76037,0,1.51747-.01419a.973.973,0,0,0-.018-1.94588m-9.75-.41557a.973.973,0,0,0-.10023,1.94077q.9806.10265,1.96828.1815c.02629.00211.05247.00313.07838.00313a.973.973,0,0,0,.07623-1.943q-.96346-.07681-1.92009-.177a.98244.98244,0,0,0-.10257-.00539m17.53958-.11568a.98452.98452,0,0,0-.11543.00682q-.95526.11291-1.91765.20261a.973.973,0,0,0,.089,1.94183q.0453,0,.09131-.00426.9865-.09183,1.96576-.20763a.97305.97305,0,0,0-.113-1.93938M71.24815,134.421a.97312.97312,0,0,0-.19661,1.92593q.966.20027,1.94061.37714a.973.973,0,1,0,.34721-1.91473q-.9505-.17242-1.89262-.36786a.97706.97706,0,0,0-.19859-.02048m32.95065-.21858a.97552.97552,0,0,0-.21135.02324q-.93956.208-1.88765.39314a.973.973,0,1,0,.37282,1.91q.97208-.18981,1.93552-.4032a.97308.97308,0,0,0-.20934-1.92314m-40.50471-1.75009a.97315.97315,0,0,0-.2923,1.90123h-.00006q.94141.29675,1.893.57053a.973.973,0,1,0,.538-1.8701q-.92786-.26694-1.84592-.5564a.97256.97256,0,0,0-.29274-.04526m48.03194-.3199a.97168.97168,0,0,0-.30508.04929q-.91422.30167-1.83844.5811a.973.973,0,1,0,.563,1.86282q.9478-.28649,1.88527-.596a.97314.97314,0,0,0-.30478-1.8972m-55.34959-2.40027a.97317.97317,0,0,0-.38509,1.867v-.00006q.90706.3904,1.82587.75854a.973.973,0,0,0,.72383-1.80638q-.89594-.359-1.78044-.73964a.96982.96982,0,0,0-.38417-.0795m62.64105-.42285a.96941.96941,0,0,0-.39612.08476q-.88181.39368-1.77536.76588a.973.973,0,1,0,.74823,1.79645q.91626-.38159,1.82057-.78537a.97319.97319,0,0,0-.39732-1.86172m-69.639-3.0163a.97313.97313,0,0,0-.47343,1.82372q.86128.47845,1.73569.936a.973.973,0,0,0,.90211-1.72426q-.85277-.44614-1.69266-.91278a.96875.96875,0,0,0-.47171-.12267m76.60574-.52661a.96853.96853,0,0,0-.48331.1292q-.8372.48038-1.68762.94019a.973.973,0,1,0,.9256,1.71182q.87195-.47147,1.73053-.96411a.9731.9731,0,0,0-.4852-1.81709M42.7581,122.16609a.9731.9731,0,0,0-.55646,1.77194q.80983.5631,1.63435,1.10646a.973.973,0,0,0,1.07074-1.625q-.80422-.52982-1.594-1.07912a.96845.96845,0,0,0-.55466-.17429m89.799-.62431a.96842.96842,0,0,0-.56578.18208q-.78429.56186-1.5834,1.10428a.973.973,0,1,0,1.09312,1.61q.81919-.55625,1.6235-1.13234a.97306.97306,0,0,0-.56744-1.76407M36.58207,117.3941a.973.973,0,0,0-.63326,1.71214q.75.64215,1.51638,1.26566a.973.973,0,0,0,1.22819-1.50941q-.74743-.60818-1.479-1.2345a.96921.96921,0,0,0-.63233-.23389m102.089-.71388a.96929.96929,0,0,0-.64273.24283q-.72372.6373-1.46356,1.25668a.973.973,0,1,0,1.24908,1.49226q.75854-.635,1.50064-1.28856a.973.973,0,0,0-.64343-1.70322m-107.7578-4.65491a.973.973,0,0,0-.70356,1.645q.68259.7148,1.38293,1.41234a.973.973,0,0,0,1.37325-1.3788q-.683-.68026-1.34873-1.37744a.97028.97028,0,0,0-.70388-.30106m113.35168-.79355a.97036.97036,0,0,0-.71332.311q-.65579.7064-1.32925,1.39615a.973.973,0,1,0,1.39247,1.35938v.00006q.69042-.70724,1.36293-1.43161a.973.973,0,0,0-.71283-1.635M25.81021,106.113a.97308.97308,0,0,0-.767,1.57091q.6079.78051,1.235,1.54515a.973.973,0,1,0,1.5047-1.234q-.61148-.74567-1.20432-1.5069a.97138.97138,0,0,0-.76832-.37517m123.47167-.86153a.97141.97141,0,0,0-.77672.386q-.58129.76831-1.18135,1.52147a.973.973,0,0,0,1.52193,1.21271q.61535-.77229,1.21141-1.56018a.97306.97306,0,0,0-.77527-1.56M21.327,99.7149a.97322.97322,0,0,0-.8231,1.49048q.52653.83874,1.0737,1.66318a.973.973,0,0,0,1.62139-1.07616q-.5335-.80381-1.047-1.6217a.97244.97244,0,0,0-.825-.4558m132.34236-.9158a.9724.9724,0,0,0-.83212.46741q-.50052.82249-1.021,1.63126a.973.973,0,1,0,1.63635,1.05325V101.951q.5338-.82938,1.04713-1.67293a.97328.97328,0,0,0-.83035-1.47893M17.51291,92.89375a.97343.97343,0,0,0-.87157,1.40436q.43935.88886.90051,1.765a.973.973,0,0,0,1.722-.90639q-.4496-.85414-.878-1.72086a.973.973,0,0,0-.873-.54208m139.867-.954a.973.973,0,0,0-.8788.55426q-.4143.86835-.84969,1.7244a.973.973,0,1,0,1.73453.88219q.4465-.87792.87148-1.76865a.97343.97343,0,0,0-.87752-1.3922M14.411,85.71712a.97369.97369,0,0,0-.91158,1.31328q.34705.93038.71688,1.84941a.973.973,0,1,0,1.80528-.72649q-.3605-.89594-.69881-1.803a.97345.97345,0,0,0-.91177-.63324m145.96476-.981a.97325.97325,0,0,0-.91623.64587q-.32481.9088-.67186,1.80676a.973.973,0,1,0,1.81522.70146q.35587-.92109.68915-1.85339a.97374.97374,0,0,0-.91627-1.3007M12.06019,78.27229a.97385.97385,0,0,0-.94222,1.2186q.24972.95833.523,1.907a.973.973,0,0,0,1.87-.53859q-.26636-.92487-.50989-1.85915a.97342.97342,0,0,0-.94085-.72786M162.62385,77.2599a.97334.97334,0,0,0-.94414.74085q-.23064.93755-.48421,1.86585a.973.973,0,1,0,1.8772.51279q.26017-.95215.49667-1.9139a.97375.97375,0,0,0-.94553-1.20559M10.47911,70.6272a.97388.97388,0,0,0-.96285,1.12163q.15113.97913.32645,1.95009a.973.973,0,0,0,1.91506-.34566q-.17086-.94663-.31831-1.90139a.97321.97321,0,0,0-.96034-.82466m153.62067-1.03309a.97318.97318,0,0,0-.96237.83784q-.13429.9567-.29219,1.90553a.973.973,0,1,0,1.91957.31935q.16189-.97315.29968-1.95428a.97373.97373,0,0,0-.96469-1.10843M9.678,62.86179q-.02582,0-.05187.00137a.97292.97292,0,0,0-.92057,1.02274q.052.98959.12843,1.97266a.97309.97309,0,0,0,.96906.89767q.03794,0,.07639-.003a.973.973,0,0,0,.89471-1.04545q-.0745-.95873-.12527-1.9241a.97311.97311,0,0,0-.97087-.92194m155.11714-1.04317a.973.973,0,0,0-.9716.93507q-.03774.96609-.09927,1.92577a.97306.97306,0,0,0,.90884,1.0332q.03177.002.06319.002a.973.973,0,0,0,.97-.9108q.063-.984.10179-1.97434a.97308.97308,0,0,0-.93433-1.01017l-.03862-.00076M9.65359,55.0536a.973.973,0,0,0-.97122.92789c-.03018.65024-.05264,1.31377-.067,1.97589a.9731.9731,0,0,0,.95167.994l.02143.00023a.97306.97306,0,0,0,.97248-.95189c.01406-.64657.03593-1.29449.06534-1.928a.97305.97305,0,0,0-.92683-1.01707l-.04585-.00106m155.06155-1.04487q-.02991,0-.06013.00183a.973.973,0,0,0-.91194,1.03043c.03806.62354.06857,1.271.09128,1.92551a.973.973,0,0,0,.9718.93923l.03436-.0006a.973.973,0,0,0,.93871-1.0061c-.02328-.6705-.05458-1.33449-.09372-1.97648a.97317.97317,0,0,0-.97035-.91383" style="fill:#d8eae4"/><path d="M164.5613,53.01765c-.01653-.16941-.03355-.33573-.05164-.49742" style="fill:#d9eeea"/><path d="M165.5297,52.92318c-.01683-.17245-.0343-.34322-.05307-.51109a.973.973,0,0,0-1.93393.21628c.01738.1555.034.31738.05019.48374a.973.973,0,0,0,1.93683-.18892Z" style="fill:#d9eeea"/><polyline points="86.214 129.271 86.214 143.708 88.16 143.708 88.16 129.271" style="fill:#afddd0"/><polygon points="84.75 143.494 87.35 146.956 89.674 143.494 84.75 143.494" style="fill:#afddd0"/><path d="M84.7501,143.49425l-.77808.58424,2.5995,3.46185a.973.973,0,0,0,1.58583-.04181l2.32474-3.46185a.973.973,0,0,0-.80775-1.51544H84.7501a.973.973,0,0,0-.77808,1.55725l.77808-.58424v.973h3.09882l-.54359.80946L85.52816,142.91l-.77806.58426v0Z" style="fill:#afddd0"/><line x1="140.52221" y1="105.65053" x2="148.97253" y2="114.10085" style="fill:#37b882"/><polyline points="139.448 105.952 148.285 114.789 149.661 113.413 140.824 104.576" style="fill:#afddd0"/><polygon points="147.25 115.819 152.028 116.918 150.732 112.347 147.25 115.819" style="fill:#afddd0"/><path d="M147.24966,115.8188l-.21815.94823,4.77859,1.09937a.973.973,0,0,0,1.15424-1.21371l-1.29639-4.571a.973.973,0,0,0-1.62306-.42358l-3.48221,3.47165a.973.973,0,0,0,.46883,1.6373l.21815-.94823.687.68906,2.31055-2.30356.39615,1.39682-3.17552-.73056-.21814.94824.687.68906Z" style="fill:#afddd0"/><line x1="35.58942" y1="103.35205" x2="24.86549" y2="113.92867" style="fill:#37b882"/><polyline points="33.418 104 24.177 113.241 25.553 114.617 34.794 105.376" style="fill:#afddd0"/><polygon points="23.142 112.211 22.04 116.975 26.625 115.683 23.142 112.211" style="fill:#afddd0"/><path d="M23.14237,112.211l-.94794-.21942-1.10271,4.7641a.973.973,0,0,0,1.21194,1.15591l4.58491-1.29247a.973.973,0,0,0,.423-1.62556l-3.48219-3.47163a.973.973,0,0,0-1.63491.46965l.94794.21942-.687.68906,2.30431,2.29733-1.4013.395.7319-3.162-.94794-.21941-.687.68906Z" style="fill:#afddd0"/><polyline points="157.476 53.519 167.823 53.519 167.823 51.573 157.476 51.573" style="fill:#afddd0"/><polygon points="167.675 54.975 171.834 52.383 167.675 50.066 167.675 54.975" style="fill:#afddd0"/><path d="M167.67514,54.975l.51459.82578,4.15881-2.59163a.973.973,0,0,0-.041-1.6757l-4.1588-2.31769a.973.973,0,0,0-1.44666.84993V54.975a.973.973,0,0,0,1.48759.82578l-.51459-.82578h.973V51.72185l1.271.70833-2.75859,1.71908.5146.82578h0Z" style="fill:#afddd0"/><polyline points="17.016 51.522 7.214 51.522 7.214 53.468 17.016 53.468" style="fill:#afddd0"/><polygon points="7.496 50.065 3.337 52.657 7.496 54.975 7.496 50.065" style="fill:#afddd0"/><path d="M7.49584,50.06546l-.5146-.82578-4.1588,2.59163a.973.973,0,0,0,.04094,1.6757l4.1588,2.31769a.973.973,0,0,0,1.44666-.84992V50.06546a.973.973,0,0,0-1.4876-.82578l.5146.82578h-.973v3.25317l-1.271-.70833,2.75861-1.71906-.5146-.82578h0Z" style="fill:#afddd0"/><line x1="106.11042" y1="70.75293" x2="139.80001" y2="104.86377" style="fill:#f6b35f"/><polyline points="104.734 70.744 139.791 106.24 141.176 104.872 106.119 69.377" style="fill:#afddd0"/><line x1="67.84277" y1="70.69551" x2="35.58937" y2="103.3522" style="fill:#f6b35f"/><path d="M67.15475,70.00749,33.672,103.49022a.973.973,0,0,0,1.376,1.376L68.53077,71.38352a.973.973,0,0,0-1.376-1.376" style="fill:#afddd0"/><path d="M87.21234,129.27072v.973A71.2302,71.2302,0,0,0,158.69584,59.099c-.00011-2.26977-.11067-4.57076-.31909-6.60827a.97287.97287,0,0,0-.96794-.87393H113.40624a.973.973,0,0,0-.973.973,25.22185,25.22185,0,0,1-50.44183,0,.973.973,0,0,0-.973-.973H17.01583a.97286.97286,0,0,0-.96795.87394c-.20838,2.03716-.319,4.32718-.31908,6.59694a71.23983,71.23983,0,0,0,71.48354,71.15605v-1.946A69.29383,69.29383,0,0,1,17.67481,59.08766c-.00011-2.206.10829-4.43909.309-6.39881l-.96794-.09906v.973H61.01841v-.973h-.973a27.167,27.167,0,0,0,54.33383,0h-.973v.973h44.00256v-.973l-.968.09907c.20067,1.95937.3091,4.20414.309,6.41013a69.28351,69.28351,0,0,1-69.53751,69.19873Z" style="fill:#3fb299"/><polyline points="56.923 105.548 52.841 110.901 52.847 110.901 53.365 105.269 56.986 105.269 57.504 110.901 57.498 110.901 53.417 105.548" style="fill:#f7bac2"/><path d="M56.49049,105.21814l-4.08131,5.3537a.5435.5435,0,0,0,.43224.873h.00568a.54419.54419,0,0,0,.54121-.49376l.47214-5.13853h2.62994l.47217,5.13853.54123-.04973v-.5435h-.0062v.5435l.43224-.32948-4.08081-5.3537a.54349.54349,0,1,0-.86447.659l4.0808,5.35368a.54568.54568,0,0,0,.43225.214h.0062a.54349.54349,0,0,0,.54121-.59323l-.51752-5.63228a.54418.54418,0,0,0-.54121-.49376H53.3646a.54416.54416,0,0,0-.54123.49376l-.51752,5.63228.54123.04974v-.5435h-.00568v.5435l.43222.3295,4.08131-5.3537a.54349.54349,0,1,0-.86444-.659Z" style="fill:#ee404c"/><rect x="54.36305" y="103.95941" width="1.61868" height="1.26363" style="fill:#fef5f6"/><polygon points="54.363 105.223 54.363 105.723 56.482 105.723 56.482 103.459 53.863 103.459 53.863 105.723 54.363 105.723 54.363 105.223 54.863 105.223 54.863 104.459 55.482 104.459 55.482 104.723 54.363 104.723 54.363 105.223 54.863 105.223 54.363 105.223" style="fill:#ee404c"/><path d="M55.71618,103.5731v-2.01027a.5435.5435,0,1,0-1.087,0v2.01027a.5435.5435,0,0,0,1.087,0" style="fill:#ee404c"/><circle cx="55.17278" cy="101.58909" r="0.52667" style="fill:#ee404c"/><path d="M56.52363,111.87h-.06818a2.36655,2.36655,0,0,1-1.29691.64624A2.28449,2.28449,0,0,1,53.89,111.87h-.06818a2.08374,2.08374,0,0,1-1.206.42842,2.56684,2.56684,0,0,0,2.55664,2.33983,2.36228,2.36228,0,0,0,2.52823-2.12407,2.26479,2.26479,0,0,1-1.17709-.64418" style="fill:#f7bac2"/><path d="M56.52363,111.87v-.5435h-.06818a.54253.54253,0,0,0-.3334.11427,5.01867,5.01867,0,0,1-.53563.38321.90543.90543,0,0,1-.42787.14876.8284.8284,0,0,1-.40683-.14462,5.59554,5.59554,0,0,1-.5282-.38728.54277.54277,0,0,0-.33348-.11433h-.06818a.54341.54341,0,0,0-.33385.11461,1.54121,1.54121,0,0,1-.89116.31413.5435.5435,0,0,0-.52251.58975,3.11017,3.11017,0,0,0,3.09814,2.83675,3.24962,3.24962,0,0,0,2.06885-.69356,2.74884,2.74884,0,0,0,1.00089-1.92764.54348.54348,0,0,0-.52251-.58954.75084.75084,0,0,1-.36-.14542c-.15367-.09874-.3217-.24315-.50258-.38474a.5428.5428,0,0,0-.3335-.11435v.5435l-.33351.42914c.14709.1133.33958.283.57845.43864a1.80065,1.80065,0,0,0,.91315.31956l.019-.54317-.54152-.04637a1.65466,1.65466,0,0,1-.605,1.17813,2.16664,2.16664,0,0,1-1.38168.44881,2.02352,2.02352,0,0,1-2.01515-1.84291l-.54149.04659.019.54317a2.6264,2.6264,0,0,0,1.52086-.54271l-.33383-.42888v.54349H53.89V111.87l-.3335.42915a6.39676,6.39676,0,0,0,.63571.46094,1.883,1.883,0,0,0,.96629.29964,1.95227,1.95227,0,0,0,.974-.29588,5.93223,5.93223,0,0,0,.65631-.46463l-.33339-.42921v.54349h.06818V111.87l-.33351.42914Z" style="fill:#ee404c"/><path d="M50.68521,111.466a1.62081,1.62081,0,0,0,.649,1.04567,2.06176,2.06176,0,0,0,2.40982,0,1.62065,1.62065,0,0,0,.64909-1.04572l-.53714-.08279-.53716.08279a1.62089,1.62089,0,0,0,.64873,1.04564,2.06207,2.06207,0,0,0,2.41006.00008,1.62065,1.62065,0,0,0,.64909-1.04572l-.53714-.08279-.53716.08281a1.621,1.621,0,0,0,.64873,1.04562,2.06207,2.06207,0,0,0,2.41006.00008,1.62065,1.62065,0,0,0,.64909-1.04572.54348.54348,0,0,0-1.07428-.16559.53615.53615,0,0,1-.22482.34007.97689.97689,0,0,1-1.10982.00008.53612.53612,0,0,1-.22467-.34018.54349.54349,0,0,0-1.0743,0,.53605.53605,0,0,1-.22481.34009.97689.97689,0,0,1-1.10982.00008.536.536,0,0,1-.22467-.34016.54349.54349,0,0,0-1.0743,0,.53605.53605,0,0,1-.22481.34009.97663.97663,0,0,1-1.1097,0,.53623.53623,0,0,1-.22479-.34013.54349.54349,0,0,0-1.07428.16562Z" style="fill:#ee404c"/><path d="M68.81072,113.70226a1.62094,1.62094,0,0,0,.649,1.04565,2.06174,2.06174,0,0,0,2.40981,0,1.62069,1.62069,0,0,0,.64909-1.0457l-.53714-.08281-.53716.08281a1.621,1.621,0,0,0,.64873,1.04561,2.06206,2.06206,0,0,0,2.41008.00009,1.62069,1.62069,0,0,0,.64909-1.0457l-.53714-.08281-.53716.08281a1.62091,1.62091,0,0,0,.64871,1.04561,2.06206,2.06206,0,0,0,2.41008.00009,1.62069,1.62069,0,0,0,.64909-1.0457.54349.54349,0,1,0-1.07428-.16562.53611.53611,0,0,1-.22482.34007.97686.97686,0,0,1-1.10982.00009.53606.53606,0,0,1-.22467-.34018.54349.54349,0,0,0-1.0743,0,.536.536,0,0,1-.22481.34009.97688.97688,0,0,1-1.10983.00009.53612.53612,0,0,1-.22467-.34018.54349.54349,0,0,0-1.0743,0,.536.536,0,0,1-.22481.34009.97653.97653,0,0,1-1.10968,0,.53616.53616,0,0,1-.22481-.34013.54349.54349,0,1,0-1.07428.16565Z" style="fill:#ee404c"/><path d="M111.21833,113.7066a1.621,1.621,0,0,0,.649,1.04568,2.06178,2.06178,0,0,0,2.40984,0,1.62082,1.62082,0,0,0,.64909-1.04572l-.53714-.08281-.53716.08279a1.62093,1.62093,0,0,0,.64871,1.04564,2.06206,2.06206,0,0,0,2.41008.00009,1.62072,1.62072,0,0,0,.64909-1.04573l-.53714-.08279-.53716.08279a1.62093,1.62093,0,0,0,.64871,1.04564,2.06205,2.06205,0,0,0,2.4101.00008,1.62067,1.62067,0,0,0,.64908-1.04572.54348.54348,0,1,0-1.07428-.16559.53618.53618,0,0,1-.22482.34009.97689.97689,0,0,1-1.10982.00008.53606.53606,0,0,1-.22467-.34018.54349.54349,0,0,0-1.07429,0,.536.536,0,0,1-.22481.34009.97686.97686,0,0,1-1.10982.00009.53606.53606,0,0,1-.22467-.34018.54349.54349,0,0,0-1.07429,0,.536.536,0,0,1-.22482.3401.97653.97653,0,0,1-1.10968,0,.53619.53619,0,0,1-.22479-.34013.54349.54349,0,1,0-1.07428.16562Z" style="fill:#ee404c"/><path d="M76.63616,112.55608a15.90682,15.90682,0,0,0-3.45172-1.1246,31.76814,31.76814,0,0,1-5.94844-1.53088,6.19938,6.19938,0,0,1-3.99765-4.224c-.50668-1.67969-.58261-1.65652,1.16521-1.65652h62.56273l-5.56728,4.43147c-1.89449,1.39493-3.82256,2.74455-5.72687,4.1256,0,0-3.24048,2.26671-5.53059,2.25539-17.72655-.08548-16.58044.0036-34.307,0a1.11907,1.11907,0,0,1-.00258-2.20132,5.90175,5.90175,0,0,1,.80418-.07516" style="fill:#f7bac2"/><path d="M76.64938,113.05589a.51655.51655,0,0,0,.18321-.03682l.194-.13632a.51054.51054,0,0,0,.12575-.333.50148.50148,0,0,0-.08942-.28728.52448.52448,0,0,0-.13483-.1358,1.41749,1.41749,0,0,0-.25121-.13152,20.94747,20.94747,0,0,0-3.40648-1.05621,31.28512,31.28512,0,0,1-5.85559-1.50525,5.69032,5.69032,0,0,1-3.69783-3.9015c-.09415-.31186-.17238-.56259-.22356-.75206a1.64708,1.64708,0,0,1-.0701-.3531l.00018-.0076-.20345-.0257.1295.14986.07394-.12416-.20345-.0257.1295.14986-.10356-.11983.07089.14244.03267-.02261-.10356-.11983.07089.14244-.00926-.01862.00763.01942.00163-.00081-.00926-.01862.00763.01942a1.10644,1.10644,0,0,1,.27159-.03645c.16472-.00948.393-.01057.67979-.01048l.13687,0h62.56273v-.5l-.3114-.3912-5.56728,4.43147.3114.3912-.29646-.40263c-1.888,1.39021-3.81511,2.73917-5.724,4.12346l.29355.40477-.28661-.40973-.1335.09042a18.37717,18.37717,0,0,1-2.11668,1.20663,7.56577,7.56577,0,0,1-2.97668.86809l-.01578,0h.00107c-5.78622-.02791-9.56236-.03723-12.64055-.03722-6.16486,0-9.52617.03728-20.62746.03728l-1.04137-.00008,0,.5.09087-.49168a.58972.58972,0,0,1-.381-.22246.662.662,0,0,1-.12808-.398.6361.6361,0,0,1,.12451-.38725.56091.56091,0,0,1,.37262-.20859,5.40378,5.40378,0,0,1,.736-.06865l-.02661-.99963a6.39809,6.39809,0,0,0-.87231.08165,1.56668,1.56668,0,0,0-1.00145.58438,1.63326,1.63326,0,0,0-.33275.99809,1.65938,1.65938,0,0,0,.33159,1.00272,1.59549,1.59549,0,0,0,.99574.60114l.045.00832.04584,0,1.04144,0c11.1039,0,14.468-.03728,20.62746-.03728,3.0761,0,6.85046.00931,12.63571.03722h.00107l.01848,0a9.16463,9.16463,0,0,0,3.84451-1.18341,18.86222,18.86222,0,0,0,1.95555-1.16228l.00293-.00206.004-.0029c1.89978-1.37779,3.82884-2.72809,5.72978-4.12773l.00784-.00578,6.694-5.32831H64.40356l-.13687,0a5.4855,5.4855,0,0,0-1.16544.06853.90616.90616,0,0,0-.49049.28427.84305.84305,0,0,0-.18738.55414,2.42753,2.42753,0,0,0,.10481.6144c.05963.21988.13889.47253.23146.77963a6.70913,6.70913,0,0,0,4.29753,4.54648,32.25156,32.25156,0,0,0,6.04109,1.55647,16.65317,16.65317,0,0,1,2.08958.58485c.35515.11989.6757.23647.9001.32507.11159.044.2005.08182.24884.10475l.02632.01292.00388.002.16216-.27771-.20558.2464.04343.03131.16216-.27771-.20558.2464.29561-.35428-.36888.27679.07327.07748.29561-.35428-.36888.27679.3933-.29512-.49121,0a.483.483,0,0,0,.09792.2951l.3933-.29512-.49121,0h.49606l-.37231-.32785a.503.503,0,0,0-.12375.32785h.49606l-.37231-.32785.36763.32373-.11819-.47591a.48021.48021,0,0,0-.24944.15218l.36763.32373-.11819-.47591.10936.44034-.012-.4538-.09737.01346.10936.44034-.012-.4538.02646.99966Z" style="fill:#ee404c"/><path d="M76.63616,112.55608l.01437.5433a.55863.55863,0,0,0,.19807-.03987l.21066-.148a.55468.55468,0,0,0,.1366-.36177.54424.54424,0,0,0-.09706-.31189.56591.56591,0,0,0-.14542-.14661,1.45271,1.45271,0,0,0-.25909-.136,20.9758,20.9758,0,0,0-3.41637-1.05917,31.24134,31.24134,0,0,1-5.84752-1.503,6.22294,6.22294,0,0,1-2.32753-1.48329,5.79122,5.79122,0,0,1-1.34422-2.39015c-.09421-.31206-.17239-.56271-.22321-.75084a1.62894,1.62894,0,0,1-.06859-.34175l-.00015-.00215-.24661-.03114.15794.18277.08867-.15163-.24661-.03114.15794.18277-.132-.15271.09023.18135.04173-.02864-.132-.15271.09023.18135-.00159-.00317.00124.00392.00035-.00075-.00159-.00317.00124.00392a4.70222,4.70222,0,0,1,.93073-.04231l.13687,0h62.56273v-.54349l-.33849-.42525-5.56728,4.43147.33849.42525-.32227-.43767c-1.88747,1.3898-3.81445,2.73869-5.72369,4.12328l.31909.44-.31154-.44537-.13268.08986a18.33533,18.33533,0,0,1-2.1114,1.20364,7.52818,7.52818,0,0,1-2.95786.86378l-.01567,0h.00116c-5.78625-.02791-9.56247-.03722-12.64075-.03722-6.1651,0-9.52628.03728-20.62746.03728q-.50963,0-1.04135-.00006l0,.5435.09877-.53445a.5462.5462,0,0,1-.35428-.206.61871.61871,0,0,1-.11922-.37173.5928.5928,0,0,1,.11545-.36069.51731.51731,0,0,1,.34528-.19223,5.35772,5.35772,0,0,1,.73007-.06808l-.01447-.5433-.01448-.54332a6.446,6.446,0,0,0-.87822.08223,1.61055,1.61055,0,0,0-1.02881.60072,1.67683,1.67683,0,0,0-.34181,1.02467,1.70276,1.70276,0,0,0,.34045,1.029,1.63918,1.63918,0,0,0,1.02248.6176l.09872.009q.53183,0,1.04146.00006c11.104,0,14.46819-.03728,20.62746-.03728,3.076,0,6.8503.00931,12.63551.03722h.00116l.01859,0a9.20259,9.20259,0,0,0,3.86446-1.18826,18.90088,18.90088,0,0,0,1.96054-1.16528l.00755-.00539c1.89938-1.3775,3.82854-2.72786,5.73-4.12791l.01622-.01242,5.56728-4.43147a.5435.5435,0,0,0-.33847-.96873H64.40356l-.13687,0a5.50975,5.50975,0,0,0-1.17583.06978.94932.94932,0,0,0-.51335.29848.88672.88672,0,0,0-.19763.58218,2.46561,2.46561,0,0,0,.10634.62575c.06.22122.13928.474.2318.78085a6.88115,6.88115,0,0,0,1.5994,2.82753,7.3088,7.3088,0,0,0,2.72421,1.747,32.29421,32.29421,0,0,0,6.04916,1.55869,16.62125,16.62125,0,0,1,2.08316.58322c.35455.11969.67464.2361.898.32433.11105.04375.19942.08139.24623.10361l.02483.01219.002.001.18408-.31526-.23343.27979.04935.03548.18408-.31526-.23343.27979.32344-.38765-.40364.30287.0802.08478.32344-.38765-.40364.30287.42809-.32123-.53471,0a.52577.52577,0,0,0,.10663.32121l.42809-.32123-.53471,0h.53955l-.40494-.35661a.54713.54713,0,0,0-.13461.35661h.53955l-.40494-.35661.40028.35249-.12871-.51811a.52265.52265,0,0,0-.27158.16562l.40028.35249-.12871-.51811.11987.48259-.01317-.49733-.1067.01474.11987.48259-.01317-.49733Z" style="fill:#ee404c"/><path d="M72.57311,104.007c2.68112,0,3.42693-.01186,6.10753.0103.49376.00412.64407-.13954.63477-.6313q-.04182-2.3226-.00052-4.64619c.00775-.46652-.14926-.59164-.60222-.59062-5.36223.0134-8.78915.0134-14.15138-.00052-.46227-.001-.60223.14008-.595.5968.02428,1.52368.03616,3.04839-.00516,4.571-.0155.57414.16527.70906.71895.70338,2.631-.02831,5.262-.01286,7.893-.01286" style="fill:#fef5f6"/><path d="M72.57311,104.007v.54349c1.3869,0,2.25626-.00317,3.14117-.00317.82686,0,1.66811.00275,2.96184.01346l.00085,0,.02391.00006a1.73761,1.73761,0,0,0,.42448-.04509.92177.92177,0,0,0,.59149-.43607,1.30452,1.30452,0,0,0,.1424-.65227l-.00043-.05029,0-.00093q-.02062-1.14516-.02034-2.29121,0-1.168.01982-2.33611l0-.0007.00031-.04047a1.492,1.492,0,0,0-.05429-.42749.89441.89441,0,0,0-.46941-.55988,1.40688,1.40688,0,0,0-.61682-.11473l-.01938.00023.01395.54333-.00136-.5435c-2.65536.00662-4.83582.00995-7.01172.00995-2.21765,0-4.43065-.00348-7.13692-.01047l.00359,0-.01,0a1.68536,1.68536,0,0,0-.41452.04446.90719.90719,0,0,0-.58055.42943,1.26885,1.26885,0,0,0-.13876.63376l.00044.04384,0-.00253c.01273.79877.022,1.59647.022,2.39267,0,.71963-.0076,1.438-.027,2.155l-.00113.07959a1.64748,1.64748,0,0,0,.05844.46883.93687.93687,0,0,0,.5014.59406,1.56643,1.56643,0,0,0,.67108.11923l.03546-.00011.00284,0c1.25529-.01352,2.51155-.01707,3.76871-.01707,1.37169,0,2.74451.00424,4.11848.00424v-1.087c-1.37173,0-2.74455-.00424-4.11848-.00424-1.25922,0-2.51935.00356-3.78041.01714l.00284,0-.02943.00011a.98655.98655,0,0,1-.20065-.01463l-.01245-.00334-.05742.145.13889-.06487-.08147-.08011-.05742.145.13889-.06487-.05183.0242.05368-.01988-.00185-.00432-.05183.0242.05368-.01988a.56055.56055,0,0,1-.01414-.16158l.00073-.05c.01976-.72906.02742-1.45731.02742-2.18459,0-.80464-.00937-1.60811-.02213-2.41l0-.00253-.00023-.02148.00929-.12294-.13811-.0386.11127.08586.02684-.04726-.13811-.0386.11127.08586-.17822-.13754.1226.18909.05562-.05154-.17822-.13754.1226.18909-.07872-.1214.05087.136.02785-.0146-.07872-.1214.05087.136.00255-.0005.14531-.01062h0l.00359,0c2.70685.007,4.92091.01047,7.13971.01047,2.177,0,4.35851-.00333,7.01442-.00995l.01259-.00017-.00851-.33157,0,.33168.0085-.00011-.00851-.33157,0,.33168.15294.011.00047-.00206-.00061.00156.00014.0005.00047-.00206-.00061.00156.07524-.18478-.179.08362.10376.10117.07524-.18478-.179.08362.07132-.03333-.07585.02208.00453.01125.07132-.03333-.07585.02208.009.117-.00018.0237,0-.0007q-.01968,1.17664-.02,2.35428,0,1.15528.02049,2.31079l0-.00093.00031.03258-.01074.13628.05508.01541-.05119-.02449-.00389.00908.05508.01541-.05119-.02449.16446.07874-.06824-.172-.09622.09325.16446.07874-.06824-.172.01.0253-.00819-.026-.00185.0007.01.0253-.00819-.026a.66036.66036,0,0,1-.1626.01318l-.0166-.00006.00085,0c-1.296-.01074-2.14148-.01349-2.97086-.01349-.88771,0-1.756.00317-3.14117.00317Z" style="fill:#ee404c"/><path d="M74.93588,98.13779c1.90327,0,1.87125-.01184,3.77452.00876.4478.00464.63528-.1138.60172-.586l-.00156-1.57207c.02376-.4238-.13068-.5587-.55626-.55716-3.83186.01288-5.72842.01132-9.56027.00154-.3848-.001-.54852.119-.5325.51236v1.57259c-.03461.49432.14667.63748.6389.63078,1.87848-.02626,3.757-.01082,5.63545-.01082" style="fill:#f7bac2"/><path d="M74.93588,98.13779v.54349c1.01909,0,1.485-.0034,1.98508-.0034.43509,0,.89893.00252,1.78352.01213l.00092,0,.0296.00011a1.22487,1.22487,0,0,0,.77122-.213.87253.87253,0,0,0,.28442-.39069,1.21666,1.21666,0,0,0,.06873-.42506l-.00508-.13875-.54218.0379L79.8556,97.56,79.854,95.98795l-.54349.00055.54265.0304.00317-.11006a1.23594,1.23594,0,0,0-.06013-.40176.87065.87065,0,0,0-.45856-.51212,1.35129,1.35129,0,0,0-.57625-.10716l-.01767.00014.01053.54341-.00183-.5435c-1.91495.00642-3.346.00923-4.77687.00923-1.43185,0-2.86378-.00285-4.78021-.00769l.00371,0-.00995,0a1.13688,1.13688,0,0,0-.74684.22319.86224.86224,0,0,0-.263.38048,1.19826,1.19826,0,0,0-.06241.40144l.0016.0735.543-.02274H68.118v1.57259h.5435l-.54218-.038-.00546.14842a1.286,1.286,0,0,0,.06563.42841.90093.90093,0,0,0,.4827.52718,1.46,1.46,0,0,0,.60609.10849l.03745-.0002.00226,0c.85956-.012,1.72026-.0153,2.58215-.0153,1.01361,0,2.02882.00453,3.04572.00453v-1.087c-1.01366,0-2.02888-.00453-3.04572-.00453-.86465,0-1.73042.00328-2.59734.0154l.00226,0-.02678.00017-.15475-.01175-.00749-.00191-.06573.17017.15627-.0842-.09053-.086-.06573.17017.15627-.0842-.11432.0616.123-.04221-.00871-.01939-.11432.0616.123-.04221-.01941.00665L69.206,97.699l-.0007-.002-.01941.00665L69.206,97.699l-.00513-.07083.00281-.07236.00133-.038V95.94524l-.00047-.02275-.00066-.028.00238-.04433-.01134-.00162.01039.00334.00095-.00172-.01134-.00162.01039.00334-.2068-.06654.09261.1936.1142-.12706-.2068-.06654.09261.1936-.04123-.0862.027.092.01425-.0058-.04123-.0862.027.092.11227-.00838v-.021l-.0002.021h.0002v-.021l-.0002.021.00371,0c1.91667.00484,3.34961.00769,4.78294.00769,1.43233,0,2.86487-.00281,4.78052-.00923l.0087-.00009-.00337-.17413v.17418l.00337,0-.00337-.17413v.17418l.12564.00929.00314-.01324-.0049.01234.00175.0009.00314-.01324-.0049.01234.0798-.20041-.18759.09836.10779.10205.0798-.20041-.18759.09836.091-.04771-.10265.01962.01166.02809.091-.04771-.10265.01962.00351.0558-.0015.04926-.00084.03094.00156,1.57207.00131.03735.00246.063-.00285.05072.00061.00015.18962.06387-.08052-.18227-.1091.11839.18962.06387-.08052-.18227.01442.03264-.00931-.03482-.00511.00218.01442.03264-.00931-.03482-.14935.01143-.01961-.00008.00092,0c-.88631-.00964-1.35561-.01219-1.79535-.01219-.50563,0-.96844.0034-1.98508.0034Z" style="fill:#ee404c"/><path d="M78.32664,91.85347c-.80109,0-1.60268.01132-2.40323-.00516-.35175-.0072-.49326.11328-.48654.47374.01653.87332.01808,1.74767-.00052,2.621-.00827.39032.14.51906.52734.51494,1.552-.01546,1.16882-.017,2.72087.001.39874.00464.52115-.13748.51237-.52008q-.03021-1.31-.00052-2.621c.00826-.35942-.12292-.47888-.47725-.47014a2.77357,2.77357,0,0,1-.39253.00568" style="fill:#fef5f6"/><path d="M78.32664,91.85347V91.31c-.46661,0-.93045.00377-1.3912.00377-.33531,0-.669-.002-1.00089-.00882l.00069,0-.04076-.00044a1.31007,1.31007,0,0,0-.35423.04372.853.853,0,0,0-.51257.3862,1.09437,1.09437,0,0,0-.13457.56358l.00041.03726-.00006-.00293q.01247.65991.0128,1.31953,0,.6403-.01329,1.27962l0-.00061-.00047.04233a1.30714,1.30714,0,0,0,.05287.3891.86814.86814,0,0,0,.42966.52034,1.22594,1.22594,0,0,0,.57089.11887l.01776,0,.00542,0c.78285-.00783,1.07336-.01207,1.36177-.01205.284,0,.57671.00406,1.34734.01306l.001,0,.0239.00009a1.398,1.398,0,0,0,.38177-.047.86441.86441,0,0,0,.52985-.41107,1.15816,1.15816,0,0,0,.12605-.56874l-.0005-.04813,0-.0013q-.01488-.64421-.01468-1.28944,0-.65359.01418-1.30737l.00046-.04266a1.263,1.263,0,0,0-.04669-.35919.83735.83735,0,0,0-.399-.50356,1.10873,1.10873,0,0,0-.5405-.12033l-.051.00072.00308-.00008c-.10864.00259-.18.00458-.22693.00616l-.05681.00233-.03094.00217-.04256.00546-.07581.01828-.12183.05608-.13451.11807a.54355.54355,0,0,0,.01143.70132.51588.51588,0,0,0,.21872.15155l.10815.02831.067.00632.05634.00076.09288-.00079.04161-.001.02565-.00116.03368-.00305.06046-.0107.10519-.03647.14-.09412a.54353.54353,0,0,0,.011-.78662.50866.50866,0,0,0-.21271-.12891l-.09442-.02162-.05869-.005c-.04643-.00153-.11343-.00174-.29643-.00188v1.087c.10678,0,.17632.00024.217.0006l.03766.0005.00508-.20714-.01152.20682.00644.00032.00508-.20714-.01152.20682.028-.5022-.05873.49951.03075.00269.028-.5022-.05873.49951.06284-.53452-.12608.52321.06325.01131.06284-.53452-.12608.52321L78.608,91.856l-.23785.4879.11072.03979L78.608,91.856l-.23785.4879.23811-.48843-.38045.388.14233.10046.23811-.48843-.38045.388.38052-.388-.54346,0a.54543.54543,0,0,0,.16293.388l.38052-.388-.54346,0h.54347l-.36954-.39851a.54431.54431,0,0,0-.17393.39851h.54347l-.36954-.39851.36934.3983L78.4454,91.337a.50561.50561,0,0,0-.2066.11995l.36934.3983L78.4454,91.337l.1618.5153-.0742-.535-.0876.0197.1618.5153-.0742-.535.06592.4753-.02216-.47948-.04376.00418.06592.4753-.02216-.47948-.09831.00114-.01877-.00011-.006.31187.01741-.3114-.01141-.00047-.006.31187.01741-.3114-.02859.51114.06535-.50772-.03676-.00342-.02859.51114.06535-.50772-.06885.53485.14253-.52007-.07368-.01479-.06885.53485.14253-.52007-.14349.52356.26691-.47272-.12341-.05084-.14349.52356.26691-.47272-.26714.47311.40935-.35727-.14221-.11584-.26714.47311.40935-.35727-.40945.35738h.54347a.54672.54672,0,0,0-.134-.35738l-.40945.35738h0l.42087.34383a.546.546,0,0,0,.12259-.34383h-.54346l.42087.34383-.42072-.3437.21075.50072a.51678.51678,0,0,0,.21-.157l-.42072-.3437.21075.50072-.20995-.49883.10173.53159.10822-.03276-.20995-.49883.10173.53159-.093-.48605.03487.49382.05814-.00777-.093-.48605.03487.49382.01033-.00043c.03177-.00128.10747-.00357.23953-.00671l.00308-.00008.01888-.00026.04968.00223.00775.001.06033-.23494-.20135.11929.141.11565.06033-.23494-.20135.11929.13153-.07793-.15211.03085.02058.04707.13153-.07793-.15211.03085.00333.0556-.00021.01927q-.01421.665-.01442,1.33076,0,.65712.015,1.31451l0-.0013.00029.02565-.00275.0614-.00224.01521.16484.04208-.13708-.09668-.02776.0546.16484.04208-.13708-.09668.184.12978-.07585-.21657-.10817.08679.184.12978-.07585-.21657.01268.03622-.00854-.03758-.00414.00136.01268.03622-.00854-.03758-.08575.00591-.01329-.00006.001,0c-.7695-.009-1.06412-.01312-1.36-.01312-.30057,0-.59142.0043-1.37262.01208l.00543,0-.01776,0-.09367-.00674-.03819.14359.08356-.12012-.04536-.02347-.03819.14359.08356-.12012-.12657.18195.21074-.07814-.08417-.10381-.12657.18195.21074-.07814.00108-.00029-.00337-.06155.0002-.018,0-.00061q.01385-.65154.01353-1.3027,0-.67056-.013-1.34009l-.00006-.00293L75.9801,92.298l.00233-.04811.00105-.007-.14062-.02734.11958.07356.021-.04622-.14062-.02734.11958.07356-.2076-.12773.08855.23015.119-.10242-.2076-.12773.08855.23015-.03593-.0934.02423.09726.0117-.00386-.03593-.0934.02423.09726.06279-.00391.01709.0002.00069,0c.34244.007.68355.009,1.02318.009.46663,0,.93047-.00377,1.3912-.00377Z" style="fill:#ee404c"/><rect x="87.76152" y="99.10056" width="2.25706" height="2.25023" style="fill:#f7bac2"/><path d="M87.76152,101.35078v.54349h2.25706a.54347.54347,0,0,0,.54349-.54349V99.10056a.5435.5435,0,0,0-.54349-.5435H87.76152a.54347.54347,0,0,0-.5435.5435v2.25023a.5435.5435,0,0,0,.5435.54349v-.54349H88.305V99.644h1.17007v1.16322l-1.71356,0v.5435h0Z" style="fill:#ee404c"/><rect x="87.76152" y="96.74631" width="2.25706" height="2.25023" style="fill:#fef5f6"/><path d="M87.76152,98.99654V99.54h2.25706a.54347.54347,0,0,0,.54349-.54349V96.74631a.5435.5435,0,0,0-.54349-.5435H87.76152a.54347.54347,0,0,0-.5435.5435v2.25023a.5435.5435,0,0,0,.5435.54349v-.54349H88.305V97.28979h1.17007V98.453l-1.71356,0v.5435h0Z" style="fill:#ee404c"/><rect x="94.25434" y="96.74631" width="2.25706" height="2.25023" style="fill:#f7bac2"/><path d="M94.25434,98.99654V99.54h2.25706a.54347.54347,0,0,0,.54349-.54349V96.74631a.5435.5435,0,0,0-.54349-.5435H94.25434a.54347.54347,0,0,0-.5435.5435v2.25023a.5435.5435,0,0,0,.5435.54349v-.54349h.54349V97.28979h1.17006V98.453l-1.71355,0v.5435h0Z" style="fill:#ee404c"/><rect x="107.23948" y="96.74631" width="2.25706" height="2.25023" style="fill:#f7bac2"/><path d="M107.23948,98.99654V99.54h2.25706a.54347.54347,0,0,0,.54349-.54349V96.74631a.5435.5435,0,0,0-.54349-.5435h-2.25706a.54347.54347,0,0,0-.5435.5435v2.25023a.5435.5435,0,0,0,.5435.54349v-.54349h.54349V97.28979H108.953V98.453l-1.71355,0v.5435h0Z" style="fill:#ee404c"/><rect x="87.76152" y="101.57993" width="2.25706" height="2.25024" style="fill:#fef5f6"/><path d="M87.76152,103.83017v.54349h2.25706a.54347.54347,0,0,0,.54349-.54349v-2.25024a.5435.5435,0,0,0-.54349-.5435H87.76152a.54347.54347,0,0,0-.5435.5435v2.25024a.5435.5435,0,0,0,.5435.54349v-.54349H88.305v-1.70676h1.17007v1.16324l-1.71356,0v.5435h0Z" style="fill:#ee404c"/><rect x="94.25434" y="99.10056" width="2.25706" height="2.25023" style="fill:#f7bac2"/><path d="M94.25434,101.35078v.54349h2.25706a.54347.54347,0,0,0,.54349-.54349V99.10056a.5435.5435,0,0,0-.54349-.5435H94.25434a.54347.54347,0,0,0-.5435.5435v2.25023a.5435.5435,0,0,0,.5435.54349v-.54349h.54349V99.644h1.17006v1.16322l-1.71355,0v.5435h0Z" style="fill:#ee404c"/><rect x="94.25434" y="101.57993" width="2.25706" height="2.25024" style="fill:#fef5f6"/><path d="M94.25434,103.83017v.54349h2.25706a.54347.54347,0,0,0,.54349-.54349v-2.25024a.5435.5435,0,0,0-.54349-.5435H94.25434a.54347.54347,0,0,0-.5435.5435v2.25024a.5435.5435,0,0,0,.5435.54349v-.54349h.54349v-1.70676h1.17006v1.16324l-1.71355,0v.5435h0Z" style="fill:#ee404c"/><rect x="100.74665" y="99.10056" width="2.25708" height="2.25023" style="fill:#fef5f6"/><path d="M100.74665,101.35078v.54349h2.25708a.54347.54347,0,0,0,.54349-.54349V99.10056a.5435.5435,0,0,0-.54349-.5435h-2.25708a.54347.54347,0,0,0-.5435.5435v2.25023a.5435.5435,0,0,0,.5435.54349v-.54349h.54349V99.644h1.17007v1.16324l-1.71356,0v.5435h0Z" style="fill:#ee404c"/><rect x="100.74665" y="101.57993" width="2.25708" height="2.25024" style="fill:#f7bac2"/><path d="M100.74665,103.83017v.54349h2.25708a.54347.54347,0,0,0,.54349-.54349v-2.25024a.5435.5435,0,0,0-.54349-.5435h-2.25708a.54347.54347,0,0,0-.5435.5435v2.25024a.5435.5435,0,0,0,.5435.54349v-.54349h.54349V102.1234h1.17007v1.16325l-1.71356,0v.5435h0Z" style="fill:#ee404c"/><rect x="81.99539" y="99.10056" width="2.25708" height="2.25023" style="fill:#f7bac2"/><path d="M81.99539,101.35078v.54349h2.25708a.54347.54347,0,0,0,.54349-.54349V99.10056a.5435.5435,0,0,0-.54349-.5435H81.99539a.54347.54347,0,0,0-.5435.5435v2.25023a.5435.5435,0,0,0,.5435.54349v-.54349h.54349V99.644h1.17007v1.16324l-1.71356,0v.5435h0Z" style="fill:#ee404c"/><rect x="81.99539" y="101.57993" width="2.25708" height="2.25024" style="fill:#fef5f6"/><path d="M81.99539,103.83017v.54349h2.25708a.54347.54347,0,0,0,.54349-.54349v-2.25024a.5435.5435,0,0,0-.54349-.5435H81.99539a.54347.54347,0,0,0-.5435.5435v2.25024a.5435.5435,0,0,0,.5435.54349v-.54349h.54349V102.1234H83.709v1.16325l-1.71358,0v.5435h0Z" style="fill:#ee404c"/><rect x="107.23948" y="99.10056" width="2.25706" height="2.25023" style="fill:#fef5f6"/><path d="M107.23948,101.35078v.54349h2.25706a.54347.54347,0,0,0,.54349-.54349V99.10056a.5435.5435,0,0,0-.54349-.5435h-2.25706a.54347.54347,0,0,0-.5435.5435v2.25023a.5435.5435,0,0,0,.5435.54349v-.54349h.54349V99.644H108.953v1.16322l-1.71355,0v.5435h0Z" style="fill:#ee404c"/><rect x="107.23948" y="101.57993" width="2.25706" height="2.25024" style="fill:#fef5f6"/><path d="M107.23948,103.83017v.54349h2.25706a.54347.54347,0,0,0,.54349-.54349v-2.25024a.5435.5435,0,0,0-.54349-.5435h-2.25706a.54347.54347,0,0,0-.5435.5435v2.25024a.5435.5435,0,0,0,.5435.54349v-.54349h.54349v-1.70676H108.953v1.16324l-1.71355,0v.5435h0Z" style="fill:#ee404c"/><rect x="113.73231" y="99.10056" width="2.25706" height="2.25023" style="fill:#f7bac2"/><path d="M113.73231,101.35078v.54349h2.25706a.54347.54347,0,0,0,.54349-.54349V99.10056a.5435.5435,0,0,0-.54349-.5435h-2.25706a.54347.54347,0,0,0-.5435.5435v2.25023a.5435.5435,0,0,0,.5435.54349v-.54349h.54349V99.644h1.17007v1.16322l-1.71356,0v.5435h0Z" style="fill:#ee404c"/><rect x="113.73231" y="101.57993" width="2.25706" height="2.25024" style="fill:#f7bac2"/><path d="M113.73231,103.83017v.54349h2.25706a.54347.54347,0,0,0,.54349-.54349v-2.25024a.5435.5435,0,0,0-.54349-.5435h-2.25706a.54347.54347,0,0,0-.5435.5435v2.25024a.5435.5435,0,0,0,.5435.54349v-.54349h.54349v-1.70676h1.17006v1.16324l-1.71355,0v.5435h0Z" style="fill:#ee404c"/><rect x="120.22512" y="101.57993" width="2.25708" height="2.25024" style="fill:#fef5f6"/><path d="M120.22512,103.83017v.54349h2.25708a.54347.54347,0,0,0,.54349-.54349v-2.25024a.5435.5435,0,0,0-.54349-.5435h-2.25708a.54347.54347,0,0,0-.5435.5435v2.25024a.5435.5435,0,0,0,.5435.54349v-.54349h.54349V102.1234h1.17007v1.16325l-1.71356,0v.5435h0Z" style="fill:#ee404c"/><polygon points="127.554 70.257 137.548 73.636 137.548 77.459 132.189 77.459 132.189 76.344 130.242 76.344 127.554 70.257" style="fill:#e4e5e4"/><path d="M127.55354,70.25731l-.17407.51487,9.62521,3.25406v2.88883H132.732l0-.57132a.5435.5435,0,0,0-.54349-.5435H130.596l-2.54527-5.76254-.49716.2196-.17407.51487.17407-.51487-.49718.21959,2.68834,6.08644a.54452.54452,0,0,0,.49718.32391H131.645l0,.57133a.54349.54349,0,0,0,.5435.5435h5.35963a.54349.54349,0,0,0,.54349-.5435V73.63626a.54352.54352,0,0,0-.36943-.51488l-9.99464-3.379a.54351.54351,0,0,0-.67123.73447Z" style="fill:#e4e5e4"/><path d="M143.00772,77.25054a2.07517,2.07517,0,1,1,2.08147-2.07516,2.07813,2.07813,0,0,1-2.08147,2.07516m-.24791-7.66109a5.58622,5.58622,0,1,0,5.60342,5.58594,5.595,5.595,0,0,0-5.60342-5.58594" style="fill:#e4e5e4"/><path d="M143.00772,77.25054V76.707a1.53167,1.53167,0,1,1,1.538-1.53165,1.5368,1.5368,0,0,1-1.538,1.53165v1.087a2.61866,2.61866,0,1,0-2.625-2.61865,2.62181,2.62181,0,0,0,2.625,2.61865Zm-.24791-7.66109v-.5435a6.12971,6.12971,0,1,0,6.14691,6.12944,6.13866,6.13866,0,0,0-6.14691-6.12944v1.087a5.05151,5.05151,0,1,1-3.57838,1.47754,5.05042,5.05042,0,0,1,3.57838-1.47754Z" style="fill:#e4e5e4"/><path d="M125.41252,77.25054a2.07517,2.07517,0,1,1,2.08147-2.07516,2.07812,2.07812,0,0,1-2.08147,2.07516m-.24791-7.66109a5.58622,5.58622,0,1,0,5.60342,5.58594,5.595,5.595,0,0,0-5.60342-5.58594" style="fill:#e4e5e4"/><path d="M125.41252,77.25054V76.707a1.53167,1.53167,0,1,1,1.538-1.53165,1.53679,1.53679,0,0,1-1.538,1.53165v1.087a2.61866,2.61866,0,1,0-2.625-2.61865,2.62181,2.62181,0,0,0,2.625,2.61865Zm-.24791-7.66109v-.5435a6.12971,6.12971,0,1,0,6.14691,6.12944,6.13866,6.13866,0,0,0-6.14691-6.12944v1.087a5.05151,5.05151,0,1,1-3.57838,1.47754,5.05042,5.05042,0,0,1,3.57838-1.47754Z" style="fill:#e4e5e4"/><polygon points="135.777 70.507 117.396 64.182 117.358 60.946 135.315 60.794 137.182 57.014 146.872 56.96 146.9 59.309 139.802 59.392 135.777 70.507" style="fill:#faf6ee"/><path d="M135.77673,70.50715l.17683-.51393-18.01839-6.20027-.02763-2.3076,17.412-.14779a.54486.54486,0,0,0,.48268-.30279l1.71848-3.47917,8.81418-.04917.015,1.265-6.55414.07752a.54345.54345,0,0,0-.50458.35838l-4.02553,11.1147.511.18508.17683-.51393-.17683.51393.511.18507,3.89734-10.76077,6.72125-.07948a.54351.54351,0,0,0,.537-.54991l-.02788-2.34858a.54393.54393,0,0,0-.54649-.537l-9.68993.05406a.54224.54224,0,0,0-.48427.3028l-1.719,3.48013-17.62288.14959a.54352.54352,0,0,0-.53885.55l.03873,3.2358a.54319.54319,0,0,0,.36662.50742l18.38043,6.32485a.54338.54338,0,0,0,.68785-.32885Z" style="fill:#f4b01c"/><polygon points="127.554 69.227 137.548 72.606 137.548 76.429 132.189 76.429 132.189 75.314 130.242 75.314 127.554 69.227" style="fill:#fbe4b4"/><path d="M127.55354,69.22746l-.17407.51487,9.62521,3.25405v2.88883H132.732V75.3139a.5435.5435,0,0,0-.54349-.5435H130.596l-2.54527-5.76254-.49716.2196-.17407.51487.17407-.51487-.49718.21959,2.68834,6.08644a.54452.54452,0,0,0,.49718.32391H131.645v.57132a.54349.54349,0,0,0,.5435.5435h5.35963a.54349.54349,0,0,0,.54349-.5435v-3.8223a.54352.54352,0,0,0-.36943-.51488l-9.99464-3.379a.54351.54351,0,0,0-.67123.73447Z" style="fill:#f4b01c"/><polygon points="127.554 69.227 137.548 72.606 137.548 76.429 132.189 76.429 132.189 75.314 130.242 75.314 127.554 69.227" style="fill:#fbe4b4"/><path d="M127.55354,69.22746l-.17407.51487,9.62521,3.25405v2.88883H132.732V75.3139a.5435.5435,0,0,0-.54349-.5435H130.596l-2.54527-5.76254-.49716.2196-.17407.51487.17407-.51487-.49718.21959,2.68834,6.08644a.54452.54452,0,0,0,.49718.32391H131.645v.57132a.54349.54349,0,0,0,.5435.5435h5.35963a.54349.54349,0,0,0,.54349-.5435v-3.8223a.54352.54352,0,0,0-.36943-.51488l-9.99464-3.379a.54351.54351,0,0,0-.67123.73447Z" style="fill:#f4b01c"/><path d="M143.00772,76.22068a2.07517,2.07517,0,1,1,2.08147-2.07516,2.07813,2.07813,0,0,1-2.08147,2.07516m-.24791-7.66109a5.58622,5.58622,0,1,0,5.60342,5.58593,5.595,5.595,0,0,0-5.60342-5.58593" style="fill:#13a483"/><path d="M143.00772,76.22068a2.07517,2.07517,0,1,1,2.08147-2.07516A2.07813,2.07813,0,0,1,143.00772,76.22068Zm-.24791-7.66109a5.58622,5.58622,0,1,0,5.60342,5.58593A5.595,5.595,0,0,0,142.75981,68.55959Z" style="fill:#fbe4b4"/><path d="M143.00772,76.22068v-.5435a1.53167,1.53167,0,1,1,1.538-1.53165,1.53679,1.53679,0,0,1-1.538,1.53165v1.087a2.61866,2.61866,0,1,0-2.625-2.61865,2.62181,2.62181,0,0,0,2.625,2.61865Zm-.24791-7.66109v-.5435a6.12971,6.12971,0,1,0,6.14691,6.12943,6.13865,6.13865,0,0,0-6.14691-6.12943v1.087a5.05151,5.05151,0,1,1-3.57838,1.47754,5.05041,5.05041,0,0,1,3.57838-1.47754Z" style="fill:#f4b01c"/><path d="M125.41252,76.22068a2.07517,2.07517,0,1,1,2.08147-2.07516,2.07812,2.07812,0,0,1-2.08147,2.07516m-.24791-7.66109a5.58622,5.58622,0,1,0,5.60342,5.58593,5.595,5.595,0,0,0-5.60342-5.58593" style="fill:#13a483"/><path d="M125.41252,76.22068a2.07517,2.07517,0,1,1,2.08147-2.07516A2.07812,2.07812,0,0,1,125.41252,76.22068Zm-.24791-7.66109a5.58622,5.58622,0,1,0,5.60342,5.58593A5.595,5.595,0,0,0,125.16461,68.55959Z" style="fill:#fbe4b4"/><path d="M125.41252,76.22068v-.5435a1.53167,1.53167,0,1,1,1.538-1.53165,1.53678,1.53678,0,0,1-1.538,1.53165v1.087a2.61866,2.61866,0,1,0-2.625-2.61865,2.62181,2.62181,0,0,0,2.625,2.61865Zm-.24791-7.66109v-.5435a6.12971,6.12971,0,1,0,6.14691,6.12943,6.13866,6.13866,0,0,0-6.14691-6.12943v1.087a5.05151,5.05151,0,1,1-3.57838,1.47754,5.05041,5.05041,0,0,1,3.57838-1.47754Z" style="fill:#f4b01c"/><path d="M142.22053,61.96754h6.14264v4.54012h-1.48129V63.40574h-4.66135a.71921.71921,0,1,1,0-1.43819m7.33987,12.59306h1.27367c0-2.87947.02274-5.26977-.02428-8.08951-.0031-.16992-.01291-.31-.0253-.44335a.80226.80226,0,0,0-.76079-.73583l-.05836-3.21211c.031-.95365-.29906-1.35065-1.30673-1.34448h-8.07846l-2.34642,8.26819.14255.06437a6.91579,6.91579,0,0,1,4.64636-1.81358,6.52206,6.52206,0,0,1,6.49335,5.49994,10.46442,10.46442,0,0,1,.04442,1.80637" style="fill:#b1ddcc"/><path d="M142.22053,61.96754h6.14264v4.54012h-1.48129V63.40574h-4.66135a.71921.71921,0,1,1,0-1.43819Zm7.33987,12.59306h1.27367c0-2.87947.02274-5.26977-.02428-8.08951-.0031-.16992-.01291-.31-.0253-.44335a.80226.80226,0,0,0-.76079-.73583l-.05836-3.21211c.031-.95365-.29906-1.35065-1.30673-1.34448h-8.07846l-2.34642,8.26819.14255.06437a6.91579,6.91579,0,0,1,4.64636-1.81358,6.52206,6.52206,0,0,1,6.49335,5.49994A10.46442,10.46442,0,0,1,149.5604,74.56061Z" style="fill:#faf6ee"/><path d="M142.22053,61.96754v.5435h5.59914v3.45312h-.3943V63.40574a.5435.5435,0,0,0-.54349-.5435h-4.66135a.176.176,0,1,1,0-.3512V61.424a1.26266,1.26266,0,1,0,0,2.52519h4.11783l0,2.55843a.54349.54349,0,0,0,.5435.5435h1.48129a.54349.54349,0,0,0,.54349-.5435V61.96754a.5435.5435,0,0,0-.54349-.5435h-6.14264Zm7.33987,12.59306v.5435h1.27367a.54349.54349,0,0,0,.54349-.5435c0-1.41433.00548-2.71168.00548-4.00167,0-1.33368-.00591-2.65946-.02983-4.09689l0-.00086c-.00333-.18533-.01431-.34177-.02753-.48372l0,.00061a1.3452,1.3452,0,0,0-1.28391-1.22937l-.0181.54321.5434-.00988-.05836-3.21211-.5434.00988.54321.01752.00221-.13515a2.48215,2.48215,0,0,0-.09042-.71109,1.36861,1.36861,0,0,0-.65251-.83053,2.22429,2.22429,0,0,0-1.08627-.22884l-.02728.00011.00433,0h-8.07846a.54364.54364,0,0,0-.52286.39512l-2.34642,8.26819a.54392.54392,0,0,0,.29918.64372l.14255.06437a.54487.54487,0,0,0,.60359-.10668,6.38549,6.38549,0,0,1,4.26645-1.65874,6.27637,6.27637,0,0,1,3.97314,1.46529,5.38442,5.38442,0,0,1,1.97954,3.54673l.00415.03136a6.63486,6.63486,0,0,1,.05786.97008c0,.199-.00491.38-.00983.5101s-.00966.2058-.00966.2058a.54362.54362,0,0,0,.54256.57694v-.5435l.54248.03323c.00038-.00708.02139-.34925.02144-.78257a7.60015,7.60015,0,0,0-.07184-1.144l-.5365.087.54065-.05559a6.46923,6.46923,0,0,0-2.36469-4.27039,7.35913,7.35913,0,0,0-4.66931-1.71747,7.44672,7.44672,0,0,0-5.02629,1.96841l.37993.38866.22366-.49535-.14255-.06437-.22366.49535.52284.14838,2.23428-7.87307h7.66776l.00432,0,.01863-.00008a1.662,1.662,0,0,1,.44972.04913c.14809.04908.16583.07594.20779.13811a1.04,1.04,0,0,1,.0847.49623l-.00166.10009-.00018.0274.05836,3.21211a.54441.54441,0,0,0,.5253.53333.25971.25971,0,0,1,.23767.24229l0,.00061c.01157.12479.0202.24847.02307.403l0-.00086c.02377,1.42926.02968,2.74828.02968,4.0788,0,1.28686-.00548,2.5845-.00548,4.00167h.5435v-.5435H149.5604v.5435l.54248.03323Z" style="fill:#f4b01c"/><path d="M45.67063,68.26258a.66761.66761,0,1,1-.66937.66735.6682.6682,0,0,1,.66937-.66735" style="fill:#e4e5e4"/><path d="M45.67063,68.26258v.35149a.31611.31611,0,1,1-.31789.31586.31716.31716,0,0,1,.31789-.31586v-.703a1.01911,1.01911,0,1,0,1.02086,1.01885,1.01984,1.01984,0,0,0-1.02086-1.01885Z" style="fill:#dbedfa"/><path d="M45.67063,67.72232a1.20777,1.20777,0,1,1-1.2117,1.208,1.21,1.21,0,0,1,1.2117-1.208" style="fill:#dbedfa"/><path d="M45.67063,67.72232v.35149a.85628.85628,0,1,1-.86021.85653.85981.85981,0,0,1,.86021-.85653v-.703a1.55927,1.55927,0,1,0,1.56317,1.55952,1.56156,1.56156,0,0,0-1.56317-1.55952Z" style="fill:#dbedfa"/><path d="M45.41833,67.68613l-.00052.0175h.53043V58.89889l-.08418-.0036-1.10684,6.70847a3.59863,3.59863,0,0,1,.66112,2.08237" style="fill:#dbedfa"/><path d="M45.41833,67.68613,45.067,67.6757l-.00052.0175a.35149.35149,0,0,0,.35135.36192h.53043a.35147.35147,0,0,0,.35149-.35149V58.89889a.35082.35082,0,0,0-.33647-.35118l-.08418-.0036a.35082.35082,0,0,0-.36183.294L44.4104,65.54653a.35069.35069,0,0,0,.05963.25991,3.24674,3.24674,0,0,1,.5968,1.87968h.3515L45.067,67.6757l.35135.01042h.35149a3.95054,3.95054,0,0,0-.72543-2.28506l-.28717.20269.3468.05722,1.10684-6.70847-.3468-.05722-.015.35117.08418.0036.015-.35117h-.3515v8.45323h-.17892v.3515l.35133.01041.00052-.0175.00015-.01041Z" style="fill:#dbedfa"/><path d="M46.86791,69.31788l-.015-.00927-.26547.45777L54.23619,74.169l.04494-.07106L49.00775,69.788a3.623,3.623,0,0,1-2.13983-.47012" style="fill:#e4e5e4"/><path d="M46.86791,69.31788l-.015-.00927-.26547.45777L54.23619,74.169l.04494-.07106L49.00775,69.788A3.623,3.623,0,0,1,46.86791,69.31788Z" style="fill:#dbedfa"/><path d="M46.86791,69.31788l.18492-.29893-.015-.00927a.35151.35151,0,0,0-.489.12259l-.26547.45777a.3515.3515,0,0,0,.12872.481l7.64873,4.40263a.351.351,0,0,0,.47243-.11677l.04494-.07106a.35075.35075,0,0,0-.07465-.46l-5.27338-4.30994a.34937.34937,0,0,0-.254-.07793q-.14786.01332-.29694.01337a3.26807,3.26807,0,0,1-1.636-.438l-.17537.30463.18492-.29893-.18492.29893-.17538.30462a3.9718,3.9718,0,0,0,1.98674.53178q.18066,0,.36-.01619l-.03152-.35008-.22244.27216,5.27338,4.30994.22244-.27216-.29709-.18787-.04494.07106.29709.18787.17534-.30464-7.34311-4.22672.08858-.15271-.30406-.17633-.18494.29892.015.00927.00955.0057Z" style="fill:#dbedfa"/><path d="M44.7257,69.75356l.0155-.00824-.265-.45828L36.828,73.68966l.03873.07467,6.38075-2.39854a3.60818,3.60818,0,0,1,1.4782-1.61224" style="fill:#f0eaf4"/><path d="M44.7257,69.75356l.0155-.00824-.265-.45828L36.828,73.68966l.03873.07467,6.38075-2.39854A3.60818,3.60818,0,0,1,44.7257,69.75356Z" style="fill:#dbedfa"/><path d="M44.7257,69.75356l.165.31038.0155-.00824a.35148.35148,0,0,0,.13933-.48632l-.265-.45828a.35116.35116,0,0,0-.47966-.12869L36.65266,73.385a.35206.35206,0,0,0-.13666.46649l.03873.07467a.35121.35121,0,0,0,.43569.16716l6.38075-2.39854.19511-.181a3.25625,3.25625,0,0,1,1.33478-1.45567l-.17537-.30462.165.31038-.165-.31038-.17538-.30463a3.96007,3.96007,0,0,0-1.62161,1.76881l.3188.14806-.12368-.329L36.74307,73.4353l.12368.329.312-.16187L37.14,73.52779l-.312.16187.17535.30463,7.34415-4.22761.08937.15457.30431-.17593-.165-.31039-.0155.00824-.01041.00576Z" style="fill:#dbedfa"/><polygon points="45.247 70.934 44.854 83.031 46.34 83.031 45.948 70.934 45.247 70.934" style="fill:#e4e5e4"/><polygon points="45.247 70.934 44.854 83.031 46.34 83.031 45.948 70.934 45.247 70.934" style="fill:#dbedfa"/><path d="M45.247,70.93418l-.35132-.01141L44.50315,83.02a.35149.35149,0,0,0,.35132.3629h1.48595a.35147.35147,0,0,0,.3513-.3629l-.39253-12.09718a.35128.35128,0,0,0-.3513-.3401H45.247a.35127.35127,0,0,0-.35132.3401l.35132.01141v.35149h.3606l.36972,11.39418h-.75978l.38077-11.73428-.3513-.0114v0Z" style="fill:#dbedfa"/><path d="M37.99808,71.743a.80921.80921,0,1,1-.81141.809.80995.80995,0,0,1,.81141-.809" style="fill:#d4c5e1"/><path d="M37.99808,71.743v.5a.30922.30922,0,1,1-.31142.309.31035.31035,0,0,1,.31142-.309v-1a1.30921,1.30921,0,1,0,1.3114,1.309,1.31016,1.31016,0,0,0-1.3114-1.309Z" style="fill:#9882bc"/><path d="M37.99808,70.59562A1.9073,1.9073,0,1,1,36.085,72.50291a1.91,1.91,0,0,1,1.91309-1.90729" style="fill:#d4c5e1"/><path d="M37.99808,70.59562v.5435a1.3638,1.3638,0,1,1-1.36959,1.36379,1.3684,1.3684,0,0,1,1.36959-1.36379v-1.087a2.45079,2.45079,0,1,0,2.45659,2.45079,2.45367,2.45367,0,0,0-2.45659-2.45079Z" style="fill:#9882bc"/><path d="M37.59961,70.53841l-.00052.02781h.83723V56.66112l-.13274-.00567L36.55526,67.24957a5.68239,5.68239,0,0,1,1.04435,3.28884" style="fill:#f0eaf4"/><path d="M37.59961,70.53841l-.54341-.01014-.00052.02781a.5435.5435,0,0,0,.54341.55363h.83723a.5435.5435,0,0,0,.5435-.5435V56.66112a.54248.54248,0,0,0-.52031-.543l-.13274-.00567a.54244.54244,0,0,0-.55943.45451L36.019,67.16106a.54241.54241,0,0,0,.09226.402,5.13814,5.13814,0,0,1,.94483,2.97536h.5435l-.54341-.01014.54341.01014h.5435a6.22663,6.22663,0,0,0-1.14387-3.60233l-.444.31348.53624.08849,1.74833-10.59412-.53624-.08849-.02319.543.13274.00567.02319-.543h-.5435V70.02271h-.29373v.5435l.5434.01013.00052-.02781.00009-.01013Z" style="fill:#9882bc"/><path d="M39.88886,73.11536l-.02376-.01442-.41888.723,12.07869,6.95255.07127-.11174-8.32843-6.80631a5.72632,5.72632,0,0,1-3.3789-.743" style="fill:#f0eaf4"/><path d="M39.88886,73.11536l.282-.46462-.02376-.01442a.54351.54351,0,0,0-.75227.19215l-.41888.723a.5435.5435,0,0,0,.19914.74352L51.25378,81.2475a.54391.54391,0,0,0,.72934-.17877l.07127-.11174a.54353.54353,0,0,0-.11429-.71312l-8.32843-6.8063a.53991.53991,0,0,0-.39246-.12049q-.233.02089-.468.021a5.17807,5.17807,0,0,1-2.59131-.69374l-.27106.47108.282-.46462-.282.46462-.27107.47108a6.26654,6.26654,0,0,0,3.13345.83858q.28353,0,.565-.02528l-.04852-.54133-.34393.42084,8.32843,6.80631.34393-.42084-.45822-.29228-.07127.11174.45822.29228.27112-.47105L40.18972,73.62476l.14565-.25134-.47027-.27247-.282.46461.02376.01442.01093.00646Z" style="fill:#9882bc"/><path d="M36.50573,73.80341l.02479-.01339-.41888-.723L24.033,80.01961l.06146.1174,10.07677-3.78728a5.69387,5.69387,0,0,1,2.33455-2.54632" style="fill:#f0eaf4"/><path d="M36.50573,73.80341l.2583.4782.02479-.01339a.5435.5435,0,0,0,.212-.75067l-.41888-.723a.54272.54272,0,0,0-.74139-.19857L23.76182,79.54855a.54323.54323,0,0,0-.21037.72313l.06146.1174a.54429.54429,0,0,0,.67271.25667l10.07677-3.78728a.54148.54148,0,0,0,.3018-.28,5.1496,5.1496,0,0,1,2.11262-2.304l-.27107-.47107.2583.4782-.2583-.4782-.27108-.47108A6.23811,6.23811,0,0,0,33.67817,76.121l.493.22877L33.98,75.841,23.9032,79.62825l.19122.50876.4815-.25209-.06146-.1174-.4815.25209.27113.471,11.609-6.68219.14719.254.47027-.27247-.25831-.4782-.02479.01339-.01277.00713Z" style="fill:#9882bc"/><polygon points="37.329 75.668 36.709 94.772 39.056 94.772 38.436 75.668 37.329 75.668" style="fill:#d4c5e1"/><path d="M37.329,75.668l-.54322-.01762L36.166,94.75465a.54349.54349,0,0,0,.54322.56111h2.34642a.5435.5435,0,0,0,.54321-.56111l-.61979-19.10432a.54317.54317,0,0,0-.54321-.52588H37.329a.54317.54317,0,0,0-.54322.52588l.54322.01762v.5435h.58067l.58453,18.01732H37.27065l.60159-18.5432L37.329,75.668v0Z" style="fill:#9882bc"/><polygon points="79.202 70.035 79.202 27.897 87.088 25.529 95.522 27.897 95.522 70.035 87.191 72.62 79.202 70.035" style="fill:#a4d8f5"/><polygon points="79.301 28.232 87.025 25.529 95.522 28.232 95.522 69.941 87.025 72.62 79.301 69.941 79.301 28.232" style="fill:#a4d8f5"/><path d="M79.30137,28.23213l.26988.77113L87.03759,26.39l7.667,2.4395V69.34215L87.03749,71.759l-6.91913-2.39924V28.23213h-.817l.26988.77113-.26988-.77113h-.817V69.94125a.8173.8173,0,0,0,.54933.7719l7.72391,2.67829a.82141.82141,0,0,0,.51329.00729l8.49629-2.67829a.81483.81483,0,0,0,.57137-.7792V28.23213a.81788.81788,0,0,0-.56927-.77854L87.273,24.75022a.81212.81212,0,0,0-.51761.00741L79.03147,27.461a.81562.81562,0,0,0-.5471.77113Z" style="fill:#5ca3d9"/><polygon points="79.202 70.035 79.202 54.93 87.088 52.562 95.522 54.93 95.522 70.035 87.191 72.62 79.202 70.035" style="fill:#a4d8f5"/><polygon points="79.301 46.77 87.025 44.066 95.522 46.77 95.522 69.941 87.025 72.62 79.301 69.941 79.301 46.77" style="fill:#afddd0"/><path d="M79.30137,46.76952l.26988.77113,7.46634-2.61323,7.667,2.4395V69.34215L87.03749,71.759l-6.91913-2.39924V46.76952h-.817l.26988.77113-.26988-.77113h-.817V69.94125a.8173.8173,0,0,0,.54933.7719l7.72391,2.67829a.82141.82141,0,0,0,.51329.00729l8.49629-2.67829a.81483.81483,0,0,0,.57137-.7792V46.76952a.81788.81788,0,0,0-.56927-.77854L87.273,43.28761a.81212.81212,0,0,0-.51761.00741l-7.72391,2.70337a.81562.81562,0,0,0-.5471.77113Z" style="fill:#3fb299"/><path d="M95.75933,24.24208,87.263,21.65756a.81166.81166,0,0,0-.497.00686l-7.72391,2.58452a.817.817,0,0,0,.51852,1.54956l7.47647-2.50174,8.24669,2.50859a.817.817,0,1,0,.47556-1.56326Z" style="fill:#5ca3d9"/><path d="M95.75933,30.4212,87.263,27.83669a.81166.81166,0,0,0-.497.00686l-7.72391,2.58452a.817.817,0,1,0,.51852,1.54956l7.47647-2.50174,8.24669,2.50859a.817.817,0,0,0,.47556-1.56326Z" style="fill:#5ca3d9"/><path d="M95.75933,21.15251,87.263,18.568a.81166.81166,0,0,0-.497.00686l-7.72391,2.58452a.817.817,0,1,0,.51852,1.54956l7.47647-2.50174,8.24669,2.50859a.817.817,0,0,0,.47556-1.56326Z" style="fill:#5ca3d9"/><path d="M95.27384,72.25227l-8.23627,2.62063-7.46632-2.61322a.817.817,0,1,0-.53976,1.54227l7.72389,2.70336a.81222.81222,0,0,0,.51761.00741l8.49629-2.70337a.817.817,0,0,0-.49542-1.55707Z" style="fill:#3fb299"/><path d="M68.84767,51.13728A18.36475,18.36475,0,1,0,87.21258,32.828,18.32666,18.32666,0,0,0,68.84767,51.13728" style="fill:#afddd0"/><path d="M68.84767,51.13728h-.973a19.29967,19.29967,0,1,0,5.6618-13.63864,19.19852,19.19852,0,0,0-5.6618,13.63864h1.946a17.35366,17.35366,0,1,1,5.08975,12.26053,17.24978,17.24978,0,0,1-5.08975-12.26053Z" style="fill:url(#4ac056e3-3d3b-4db9-83bf-7eb2dcde55d9)"/><path d="M91.91679,56.58727a1.315,1.315,0,1,1,1.315,1.30681A1.311,1.311,0,0,1,91.91679,56.58727Zm-1.28059,0a2.59559,2.59559,0,1,0,2.59557-2.5874A2.59133,2.59133,0,0,0,90.63619,56.58727Zm9.72913-5.06358a12.13718,12.13718,0,0,1-22.06979,6.91267,2.5595,2.5595,0,0,0,.79025-1.84909,2.59161,2.59161,0,0,0-2.59558-2.5874,2.56349,2.56349,0,0,0-.80542.13708.6403.6403,0,1,0,.397,1.21751,1.29787,1.29787,0,0,1,1.03691,2.371l-.59746.32764.36414.57594a13.38991,13.38991,0,1,0,18.3605-18.49155l-.55449-.33929-.33087.55957a1.31094,1.31094,0,0,1-2.44371-.65572,1.27222,1.27222,0,0,1,.05357-.34008.6403.6403,0,1,0-1.23451-.34044,2.5162,2.5162,0,0,0-.09966.68052,2.59093,2.59093,0,0,0,4.41721,1.8343A12.04534,12.04534,0,0,1,100.36532,51.52369ZM95.82734,39.702a2.59183,2.59183,0,0,0-5.09177-.67957,2.5143,2.5143,0,0,0-.09938.67957,2.59153,2.59153,0,0,0,4.82663,1.3075A2.56116,2.56116,0,0,0,95.82734,39.702Zm-2.59558,1.30681a1.311,1.311,0,0,1-1.315-1.30681,1.27222,1.27222,0,0,1,.05357-.34008,1.31123,1.31123,0,0,1,2.57639.34008,1.2832,1.2832,0,0,1-.18665.65641A1.30859,1.30859,0,0,1,93.23176,41.00884ZM73.89463,56.58727a2.59559,2.59559,0,1,0,2.59557-2.5874,2.6289,2.6289,0,0,0-2.59557,2.5874Zm2.59557-1.30681a1.311,1.311,0,0,1,1.315,1.30681,1.33724,1.33724,0,0,1-1.315,1.30681,1.30706,1.30706,0,0,1,0-2.61362Z" style="fill:#3fb299"/><path d="M92.4723,54.68224,80.15083,42.58059l-.89734.91364L91.575,55.59587Zm-.89732.91363.89732-.91363L80.15083,42.58059l-.89734.91364Z" style="fill:#3fb299"/><circle cx="78.87275" cy="42.33777" r="1.70746" style="fill:#3fb299"/><path d="M78.87275,40.63031v.5a1.20747,1.20747,0,1,1-1.20747,1.20747,1.209,1.209,0,0,1,1.20747-1.20747v-1a2.20746,2.20746,0,1,0,2.20744,2.20747,2.2072,2.2072,0,0,0-2.20744-2.20747Z" style="fill:#fff"/><path d="M77.80558,42.33778a1.06717,1.06717,0,1,1,1.06717,1.06716A1.06671,1.06671,0,0,1,77.80558,42.33778Zm-1.28059,0A2.34776,2.34776,0,1,0,78.87275,39.99,2.34757,2.34757,0,0,0,76.525,42.33778Z" style="fill:#3fb299"/><path d="M80.97123,57.28833H81.825a.6403.6403,0,0,0,0-1.2806h-.85373a.6403.6403,0,1,0,0,1.2806Zm3.41492,0h.85374a.6403.6403,0,0,0,0-1.2806h-.85374a.6403.6403,0,0,0,0,1.2806Zm3.41493,0h.85373a.6403.6403,0,1,0,0-1.2806h-.85373a.6403.6403,0,1,0,0,1.2806ZM92.64,44.093v.85373a.6403.6403,0,1,0,1.28059,0V44.093a.6403.6403,0,1,0-1.28059,0Zm0,3.41492v.85374a.6403.6403,0,1,0,1.28059,0V47.508a.6403.6403,0,1,0-1.28059,0Zm0,3.41493v.85373a.6403.6403,0,0,0,1.28059,0V50.9229a.6403.6403,0,1,0-1.28059,0Z" style="fill:#3fb299"/></svg>