<svg xmlns="http://www.w3.org/2000/svg" viewBox="0 0 175.17099 149.17098"><title>iot-gg-devices-icon</title><g id="cb66c137-d574-41b5-bd83-894780b664c6" data-name="devices"><path d="M151.6286,96.259l-1.5993,2.64647-3.79791-26.14413,3.60028-22.059,5.30957,17.5233ZM137.01678,120.44l-23.18463,16.14743-24.65558,4.72871,7.06769-4.74072,30.03345-11.34576a.67113.67113,0,0,0,.42847-.54573l3.04352-25.10806,18.76526,1.83662ZM29.28967,38.83853l2.267-2.41837L33.457,57.75153,20.51282,64.12389Zm19.32025-20.6139L74.12152,7.47076l2.06378,5.834L51.96368,31.30731,33.88452,33.93622Zm84.50922,25.15516-.00275-.00369-.14594-.20407-.00641-.00923L110.27893,22.0752l18.29065-2.09334,20.3609,27.93459-3.677,22.53087Zm-3.411,54.8479-6.53674-28.43322,9.38452-24.40075L144.9054,72.94417l3.94568,27.15617Zm-26.75262-4.21254,19.16693-22.8125L128.28979,98.031Zm-6.811,41.16779L82.313,118.58488l8.44165-10.04747L101.95172,95.21l26.47009,4.19684-2.99548,24.71376ZM26.59064,89.88666l6.69,23.50781L22.58771,93.99022Zm8.07507-33.64487L32.81244,35.44413l17.99329-2.616ZM51.94983,33.52623c1.24292,4.74442,5.24585,20.06171,6.14154,23.9529H35.43768Zm29.18579.9945-27.14783-3.0509L76.55835,14.69449ZM77.40973,12.75351l-1.941-5.48682,24.47-.22069Zm26.881-4.28271,22.1698,10.40575-17.26843,1.97607Zm-12.572,56.34287,29.50159,5.38248L101.91852,93.16933Zm-10.05121,52.46L71.223,89.25043l29.21625,5.67981L83.1394,115.522Zm-.32227,2.23924,13.0116,15.61462-28.61975-3.20326ZM50.33759,108.62605l29.73059,10.19337L63.96228,131.626,36.82367,118.74278Zm-1.19116-.77934-13.23413,9.90712-7.90521-27.7776ZM69.91174,89.56253l10.40851,27.929-28.85614-9.89326ZM59.31024,56.818c-1.10529-4.68346-5.13409-20.07832-6.1886-24.09879l27.41193,3.07953Zm.98987.90216L81.68042,36.54666l8.05664,26.54488Zm30.16,7.54692,10.19427,28.3418L71.42242,87.92628ZM70.40485,87.05644l-10.44916-28.038L89.4425,64.39814Zm9.34381-73.49958,22.892-5.61979,5.015,12.66992Zm27.12573,8.233L82.457,34.30373,77.87878,14.46456ZM34.69525,58.81714H58.45239L69.40021,88.1913,50.18707,106.975,27.88336,88.11835Zm87.35327,10.17028L91.21729,63.36117,82.79956,35.63158l25.8468-13.24612L131.722,43.835ZM20.05206,65.84234l13.14081-6.47025L26.53058,88.03247l-4.22546,4.33165Zm21.07,56.42228,21.554,10.23123-4.36121,2.79236Zm44.81982,19.61017-25.96313-6.063,4.23468-2.712,29.83313,3.339Zm61.90912-97.711L138.88763,31.866l8.06122,9.32169Zm8.61255,23.80978L148.188,40.66316l-.13391-.24377L129.38678,18.835l-.02588-.01939-.18463-.13943-.012-.00923-.01294-.00554-.00183-.00185L103.3313,6.54182l-.05908-.01385-.17914-.04155-.03235-.00739-28.532-.56974-.09607.01847-.1394.02031-.01849.01016-.01935.00369L47.95892,17.04638l-.22809.15882L28.21674,38.02687l-.1441.23824L18.71405,65.22459v.00092a.68764.68764,0,0,0-.03326.26685l-.00092.00832,2.41559,28.43414.024.07849.04706.15514.00928.03323,13.77338,24.99358.01569.01755.01385.02678.00922.01755.13391.13757.00366.00371.00555.00737.00366.00185.001.00093L57.879,136.63635l.025.012.22345.10435.00366.00185,27.78223,6.48778.00739.00185.15143.01753h.00281l.12372-.012,28.026-5.37509a.66176.66176,0,0,0,.2558-.108l23.4173-16.30994.19025-.20316,14.75958-24.42383a.66856.66856,0,0,0,.09137-.26317l3.54773-28.315A.67566.67566,0,0,0,156.46356,67.97353Z" style="fill:#dbedfa"/><path d="M21.33789,110.67963S44.91962,92.89081,38.18195,82.592s-16.72,0-16.72,0-10.23053-10.29879-16.9682,0S21.33789,110.67963,21.33789,110.67963Z" style="fill:#f3bdd0"/><path d="M21.33789,110.67963l.45166.59874a86.58381,86.58381,0,0,0,9.11621-8.17665,49.28069,49.28069,0,0,0,6.30292-7.86507,16.72476,16.72476,0,0,0,2.93384-8.48085,8.20159,8.20159,0,0,0-1.33295-4.57439,11.5688,11.5688,0,0,0-3.83142-3.81532,8.15609,8.15609,0,0,0-4.12555-1.10133A13.058,13.058,0,0,0,23.88544,79.678a19.42168,19.42168,0,0,0-2.962,2.392l.53857.522.532-.52858A19.91623,19.91623,0,0,0,18.968,79.674a13.47176,13.47176,0,0,0-7.08063-2.40929A8.3,8.3,0,0,0,7.71832,78.3646a11.49856,11.49856,0,0,0-3.85223,3.81683,8.201,8.201,0,0,0-1.333,4.57433A16.72425,16.72425,0,0,0,5.467,95.2366a57.99944,57.99944,0,0,0,9.6488,11.14072c3.20056,2.9622,5.75665,4.89055,5.77039,4.901l.4516.34076.45178-.34076-.45166-.59874.45166-.59875c-.00024-.00015-.06592-.04968-.19562-.15a85.328,85.328,0,0,1-9.57892-8.75371A44.1103,44.1103,0,0,1,6.4386,93.94673a14.70626,14.70626,0,0,1-2.40558-7.191,6.69124,6.69124,0,0,1,1.08832-3.75314,10.01086,10.01086,0,0,1,3.34033-3.33517,6.79148,6.79148,0,0,1,3.42572-.90269,12.02851,12.02851,0,0,1,6.26465,2.168,19.88377,19.88377,0,0,1,2.03516,1.51555c.24268.20627.4314.37741.55792.49545l.14209.135.04266.04187.53857.54224.532-.54883.04138-.04164a18.55218,18.55218,0,0,1,2.98944-2.34921,11.31035,11.31035,0,0,1,5.82129-1.95837,6.64716,6.64716,0,0,1,3.377.90121,10.08139,10.08139,0,0,1,3.32471,3.33664,6.69164,6.69164,0,0,1,1.08826,3.75319,15.30947,15.30947,0,0,1-2.70825,7.68956A56.6007,56.6007,0,0,1,26.541,105.2765c-1.5733,1.45622-2.99054,2.66011-4.01263,3.49841-.511.41916-.92328.74693-1.20691.96927-.14185.11118-.25153.196-.32526.25269l-.11.084.45172.59875.45166-.59875Z" style="fill:#ee404c"/><path d="M9.17853,95.36732H15.9162a.50063.50063,0,0,0,.48718-.38762l1.91278-8.293,2.15784,15.8318a.5.5,0,0,0,.98779.01932l2.06488-11.70709,2.00562,10.033a.5.5,0,0,0,.97113.03928l1.58081-5.53571h4.676a.5.5,0,0,0,0-1l-5.05322,0a.49957.49957,0,0,0-.48083.3627l-1.11774,3.91409L23.98633,88.02829a.5.5,0,0,0-.98273.01117L21.03271,99.21339,18.93817,83.84563a.5.5,0,0,0-.9826-.04485L15.51831,94.36734H9.17853a.5.5,0,0,0,0,1Z" style="fill:#ee404c"/><path d="M149.93182,78.78629c-5.37793-5.57179-15.91119-5.33427-15.91119-5.33427s-.61957,11.36641,4.7583,16.9382,16.7533,5.349,16.7533,5.349S155.30975,84.35808,149.93182,78.78629Z" style="fill:#afddd0"/><path d="M149.93182,78.78629l.71948-.69448c-2.70093-2.78644-6.451-4.15513-9.68555-4.87511a33.07267,33.07267,0,0,0-6.75775-.76615c-.13049,0-.20294.00156-.21008.00172l-.97583.94516c-.00085.01559-.02325.432-.02325,1.13769a37.27121,37.27121,0,0,0,.77313,7.553,18.51589,18.51589,0,0,0,4.28741,8.99658c2.73248,2.81453,6.683,4.17407,10.11823,4.89441a37.4204,37.4204,0,0,0,7.17444.76126c.12439,0,.19324-.00125.19916-.00136l.98077-1.01936a40.03278,40.03278,0,0,0-.80371-6.56879c-.755-3.63177-2.16467-8.02318-5.077-11.059l-.71948.69448-.71954.69447c2.4657,2.53592,3.85614,6.621,4.55688,10.07269a40.35711,40.35711,0,0,1,.64832,4.41087c.05115.56255.08,1.016.09595,1.32637.008.15518.01282.2746.01556.354l.00342.114.99982-.01953-.019-.99983s-.05023.001-.16113.001a35.48268,35.48268,0,0,1-6.76794-.71954c-3.23859-.665-6.83856-1.9805-9.08569-4.3251a16.60175,16.60175,0,0,1-3.77087-8.02676,35.32,35.32,0,0,1-.72876-7.13385c0-.33164.00531-.59267.0105-.76884l.007-.19882.00281-.06085-.99847-.05458.02264.99974.03674-.00055.128-.00067a31.13083,31.13083,0,0,1,6.32617.719c3.02966.66437,6.42358,1.96354,8.6781,4.31119Z" style="fill:#3fb299"/><path d="M159.0589,81.37479c2.88721-5.21172,10.76257-7.13273,10.76257-7.13273s2.72382,8.32383-.16333,13.53555-11.38544,7.31133-11.38544,7.31133S156.17169,86.5865,159.0589,81.37479Z" style="fill:#afddd0"/><path d="M159.0589,81.37479l.87469.48459c1.26935-2.3139,3.78815-4.02607,6.02618-5.10587a24.4539,24.4539,0,0,1,2.90265-1.18132c.37567-.1254.68018-.21643.88794-.2754.10394-.02949.18365-.051.23608-.06473l.05768-.01491.01428-.00359-.23694-.97151-.95044.311.00983.03089a26.233,26.233,0,0,1,1.10419,7.13272,11.62393,11.62393,0,0,1-1.20172,5.57637c-1.25415,2.29411-3.93024,4.06566-6.32843,5.19075a27.79221,27.79221,0,0,1-3.12311,1.24617c-.40588.13417-.73572.2325-.96149.29662-.11291.03206-.19977.05556-.2572.07076l-.08026.0208.23987.97081.97076-.23991-.00623-.02585a29.55048,29.55048,0,0,1-.70282-6.23993,14.21292,14.21292,0,0,1,1.39917-6.7238l-.87469-.48465-.87476-.48466a16.11479,16.11479,0,0,0-1.64966,7.69312,31.267,31.267,0,0,0,.76739,6.74559l1.21063.7309a28.30927,28.30927,0,0,0,4.798-1.7682c2.57269-1.22763,5.58936-3.11176,7.22235-6.02933a13.56241,13.56241,0,0,0,1.45215-6.54553,28.051,28.051,0,0,0-1.21313-7.7856l-1.18738-.66052a24.9024,24.9024,0,0,0-4.49854,1.684,15.46329,15.46329,0,0,0-6.90179,5.93565Z" style="fill:#3fb299"/><path d="M163.3963,114.67995h4.06964V99.51262H143.88422v15.16733h4.06958a8.42388,8.42388,0,0,1,15.4425,0Z" style="fill:#afddd0"/><path d="M163.3963,114.67995v1h4.06964a.99995.99995,0,0,0,.99994-1V99.51262a.99995.99995,0,0,0-.99994-1H143.88422a.99992.99992,0,0,0-1,1v15.16733a.99989.99989,0,0,0,1,1h4.06958a.99861.99861,0,0,0,.91638-.59979,7.4239,7.4239,0,0,1,13.60968,0,.99852.99852,0,0,0,.91644.59979v-1l.91638-.40021a9.42387,9.42387,0,0,0-17.27533,0l.91644.40021v-1h-3.06964V100.51259h21.58179v13.16734l-3.06964,0v1l.91638-.40021Z" style="fill:#3fb299"/><rect x="142.19977" y="99.51262" width="26.95056" height="3.37051" style="fill:#d5ece5"/><path d="M142.19977,99.51262v1h25.9505v1.37051H143.19971v-2.3705h-.99994v0h-1v3.37051a.99989.99989,0,0,0,1,1h26.95056a.99995.99995,0,0,0,.99994-1V99.51262a.99995.99995,0,0,0-.99994-1H142.19977a.99992.99992,0,0,0-1,1Z" style="fill:#3fb299"/><path d="M113.89612,95.655a23.19955,23.19955,0,0,0-45.53577,7.38861q.03809.72627.11963,1.43939l10.10352-1.96393A12.97252,12.97252,0,1,1,104.04938,97.569Z" style="fill:#fbda8f"/><path d="M76.34924,76.73274,63.56744,34.01926A17.04557,17.04557,0,0,1,68.308,2.01053a17.30412,17.30412,0,0,1,17.97607,8.62376l27.064,5.61374a1.83451,1.83451,0,0,1,1.4339,2.02636l-1.14655,8.19447a1.84484,1.84484,0,0,1-1.928,1.5585L86.82074,26.23895a19.36429,19.36429,0,0,1-3.186,4.597L103.46313,75.619a27.066,27.066,0,0,0-27.11389,1.11374Z" style="fill:#fbda8f"/><ellipse cx="124.23523" cy="23.83833" rx="8.5025" ry="8.50677" transform="translate(-1.0773 6.53435) rotate(-2.99987)" style="fill:#fbda8f"/><polygon points="127.665 50.491 124.193 52.815 119.24 36.611 134.713 31.881 139.667 48.084 136.4 47.673 133.022 36.625 124.207 39.179 127.665 50.491" style="fill:#fbda8f"/><polygon points="70.742 35.831 77.495 34.796 92.137 67.4 79.704 63.966 70.742 35.831" style="fill:#fff2d1"/><path d="M73.58673,9.98583a9.38506,9.38506,0,0,1,6.659,11.53886,10.87541,10.87541,0,0,1-3.10718,4.891A9.42219,9.42219,0,1,1,73.58673,9.98583Z" style="fill:#fff2d1"/><path d="M73.58673,9.98583l-.25946.96575a8.37372,8.37372,0,0,1,6.2442,8.10068,8.61017,8.61017,0,0,1-.29218,2.21542l.96643.257-.95844-.28533a9.87759,9.87759,0,0,1-2.82312,4.43787l.67438.73842-.62866-.77773a8.40983,8.40983,0,0,1-5.30353,1.887,8.63462,8.63462,0,0,1-2.196-.28625l.00537.00143a8.374,8.374,0,0,1-6.24445-8.10073,8.59612,8.59612,0,0,1,.2923-2.215l.06433-.24156-.06421.24128a8.3385,8.3385,0,0,1,8.0564-6.2665,8.49726,8.49726,0,0,1,2.20715.294l.25946-.96576.2594-.96576a10.49764,10.49764,0,0,0-2.726-.36246,10.34162,10.34162,0,0,0-9.9892,7.75222l.00012-.00028a10.59192,10.59192,0,0,0-.35968,2.72979,10.3765,10.3765,0,0,0,7.72552,10.03224l.00391.00105.00146.00037a10.63487,10.63487,0,0,0,2.7041.35188,10.41268,10.41268,0,0,0,6.56079-2.33153l.02319-.01879.02252-.02052A11.87331,11.87331,0,0,0,81.2041,21.81l.00415-.014.00385-.01437a10.61029,10.61029,0,0,0,.35931-2.72943A10.37631,10.37631,0,0,0,73.84613,9.02008Z" style="fill:#f4b01c"/><path d="M113.89612,95.655l.96429-.26476A24.21759,24.21759,0,0,0,91.5448,77.606q-.63931,0-1.2851.03373a24.21051,24.21051,0,0,0-22.93188,24.16743q-.00009.64085.03387,1.28926.03964.75618.12469,1.49988a1,1,0,0,0,1.18439.86832l10.10352-1.96393a1,1,0,0,0,.78851-1.18375,12.10144,12.10144,0,0,1-.23254-1.81267q-.01685-.32176-.01691-.639A11.9767,11.9767,0,0,1,90.65717,87.91031q.32016-.0168.63684-.01674a11.98,11.98,0,0,1,11.77106,9.85194,1,1,0,0,0,1.17511.80511l9.84674-1.914a1,1,0,0,0,.7735-1.24637l-.96429.26476-.19086-.98163-9.84674,1.914.19086.98163.98425-.17651A13.97927,13.97927,0,0,0,91.294,85.89359q-.36914,0-.74152.01945A13.97686,13.97686,0,0,0,77.31342,99.86523q-.00009.37047.01959.74373a14.08793,14.08793,0,0,0,.27112,2.11223l.97937-.20212-.19086-.98163-10.10352,1.96393.19086.98163.99353-.11331q-.07782-.68259-.11456-1.37846-.03149-.59514-.03119-1.18407A22.21039,22.21039,0,0,1,90.3645,79.637q.59308-.03115,1.1803-.031a22.21836,22.21836,0,0,1,21.387,16.31375l.96436-.26474-.19086-.98163Z" style="fill:#f4b01c"/><path d="M76.34924,76.73274l.958-.28669L64.52545,33.73257a.9958.9958,0,0,0-.49475-.59951A16.1429,16.1429,0,0,1,55.44324,21.5835a16.42847,16.42847,0,0,1-.23267-2.74916A16.00974,16.00974,0,0,1,68.47742,2.99607L68.308,2.01053l.15936.98722a16.91357,16.91357,0,0,1,2.697-.21751,16.25714,16.25714,0,0,1,14.24573,8.34,1.00416,1.00416,0,0,0,.6709.49317l27.064,5.61374a.84333.84333,0,0,1,.65381.805l-.00739.105.00024-.00137-1.14655,8.19447a.80865.80865,0,0,1-.27936.49365.82821.82821,0,0,1-.53467.20785l-.05212-.00186L86.8924,25.24152a.99824.99824,0,0,0-.95294.52482,18.41475,18.41475,0,0,1-3.01392,4.36454.99709.99709,0,0,0-.2052,1.10989l19.82837,44.78309.91443-.40485.46661-.88444a27.8832,27.8832,0,0,0-13.04041-3.22572q-.7413,0-1.49005.03909a27.91292,27.91292,0,0,0-13.58771,4.34164l.53766.84317.958-.28669-.958.28669.5376.84316A25.91079,25.91079,0,0,1,89.504,73.5452q.69608-.03652,1.38531-.03635a25.8818,25.8818,0,0,1,12.10712,2.99459,1,1,0,0,0,1.381-1.28929L84.54913,30.43105l-.91437.40486.70917.705a20.31774,20.31774,0,0,0,3.358-4.8294l-.88123-.4726-.07172.99742,24.88672,1.78841.19537.007a2.84782,2.84782,0,0,0,2.79468-2.42436l1.14655-8.19447.00024-.00137a2.76079,2.76079,0,0,0,.02618-.37943,2.83556,2.83556,0,0,0-2.24756-2.76329l-27.064-5.61373-.20306.97916.874-.486A18.25845,18.25845,0,0,0,71.16437.78024a18.91518,18.91518,0,0,0-3.01575.24307l-.01.00167a18.0109,18.0109,0,0,0-14.928,17.80936,18.408,18.408,0,0,0,.26086,3.08391,18.14414,18.14414,0,0,0,9.63263,12.98721l.46332-.88619-.95807.28668,12.7818,42.71348a1,1,0,0,0,1.49567.55648Z" style="fill:#f4b01c"/><path d="M124.68042,32.33344l.05231.99863a9.50478,9.50478,0,0,0,9.00507-9.48609q0-.25159-.01306-.5041l-.00006-.00088a9.50546,9.50546,0,0,0-9.48273-9.00965q-.25095,0-.50446.01324a9.5048,9.5048,0,0,0-9.00507,9.48606q-.00009.25075.01337.50611l-.00006-.00113a9.50526,9.50526,0,0,0,9.4826,9.00964q.25085,0,.50421-.0132l-.05212-.99863-.05219-.99864q-.20142.01052-.3999.01048A7.505,7.505,0,0,1,116.743,24.231l-.00006-.00113q-.01071-.19968-.01056-.3992a7.50472,7.50472,0,0,1,7.11-7.48882q.20068-.01056.3996-.0105a7.50517,7.50517,0,0,1,7.48547,7.11434l-.00006-.00088q.01044.20239.0105.40118a7.50461,7.50461,0,0,1-7.1098,7.48883Z" style="fill:#f4b01c"/><circle cx="124.22935" cy="23.84841" r="5.17521" transform="translate(-1.07791 6.53459) rotate(-3.00011)" style="fill:#fff2d1"/><path d="M124.50037,29.01913l.05231.99863a6.1766,6.1766,0,0,0,5.85187-6.16467q0-.16378-.00842-.32639l-.00006-.00148a6.177,6.177,0,0,0-6.1626-5.85475q-.163,0-.3277.00861a6.17664,6.17664,0,0,0-5.85187,6.16463q-.00009.16243.00879.32968l-.00012-.00182a6.177,6.177,0,0,0,6.1626,5.85476q.163,0,.32721-.00855l-.052-.99864-.05206-.99865-.22314.00585a4.17665,4.17665,0,0,1-4.16534-3.9594l-.00012-.00182-.00586-.22141a4.1766,4.1766,0,0,1,3.95685-4.16739l.22278-.00586a4.17684,4.17684,0,0,1,4.16534,3.95944l-.00006-.00148.00586.22467a4.17642,4.17642,0,0,1-3.9566,4.16741Z" style="fill:#f4b01c"/><path d="M127.36511,50.59082l-.57422-.81874L124.747,51.20541l-4.25885-13.93005,13.56067-4.14591,4.22052,13.80483-1.80688-.18719L133.27863,36.333a1,1,0,0,0-1.25708-.66134L123.606,38.32543a.99948.99948,0,0,0-.65558,1.24608l3.45831,11.31168.95636-.29237-.57422-.81874.57422.81874.9563-.29237-3.16852-10.36371,6.508-2.05228,3.08282,10.08336a1.001,1.001,0,0,0,.85327.70231l3.96667.411a1.00005,1.00005,0,0,0,1.05939-1.287L135.66913,31.5884a1.00005,1.00005,0,0,0-1.24872-.66393l-15.47333,4.73067a.99993.99993,0,0,0-.66394,1.24867l4.95392,16.20366a1,1,0,0,0,1.53052.52637l3.17169-2.22428a1.00213,1.00213,0,0,0,.38214-1.11111Z" style="fill:#f4b01c"/><path d="M70.74164,35.83088l.15149.98846,6.00073-.91969,13.45947,29.9706L80.49243,63.146l-8.798-27.61868-.95282.30353.15149.98846-.15149-.98846-.95288.30352L78.7511,64.26917a1.00064,1.00064,0,0,0,.68658.66037l12.43286,3.43477a1,1,0,0,0,1.17853-1.37357L78.4068,34.38624a.99932.99932,0,0,0-1.06378-.57879l-6.75293,1.035a1,1,0,0,0-.80133,1.292Z" style="fill:#f4b01c"/><path d="M103.64783,137.68251H86.11768a7.58044,7.58044,0,0,0-14.68036,0h-5.923v-24.644H99.61957v18.95692h7.579V118.7256h5.41351l9.74438,8.61678v10.34013h-4.02826a7.58044,7.58044,0,0,0-14.68036,0Z" style="fill:#efeaf5"/><path d="M103.64783,137.68251v-1H86.11768v1l.96844-.24916a8.58045,8.58045,0,0,0-16.61731,0l.96851.24915v-1h-4.9231l.00006-1.84354V114.03848H98.61951l.00006,17.957a.99989.99989,0,0,0,1,1h7.579a.99995.99995,0,0,0,.99994-1V119.72557h4.03479l9.12311,8.06743v8.8895l-3.0282,0v1l.96844-.24916a8.58046,8.58046,0,0,0-16.61731,0l.96851.24916v0l.96844.24915a6.58042,6.58042,0,0,1,12.74341,0,1.00057,1.00057,0,0,0,.96851.75084h4.02826a.99995.99995,0,0,0,.99994-1V127.34238a1.00252,1.00252,0,0,0-.33752-.74913l-9.74438-8.61678a1.00184,1.00184,0,0,0-.66241-.25087h-5.41351a.99992.99992,0,0,0-1,1v12.26982h-5.5791l.00006-17.95691a.99995.99995,0,0,0-.99994-1H65.51434a.99992.99992,0,0,0-1,1v24.644a.99989.99989,0,0,0,1,1h5.923a1.00065,1.00065,0,0,0,.96844-.75085,6.58043,6.58043,0,0,1,12.74341,0,1.00057,1.00057,0,0,0,.96851.75084h17.53015a1.00064,1.00064,0,0,0,.96844-.75084Z" style="fill:#9882bc"/><circle cx="78.77748" cy="139.5782" r="7.57895" style="fill:#d4c5e1"/><path d="M78.77747,131.99544v1a6.58089,6.58089,0,1,1-4.65186,1.92787,6.55214,6.55214,0,0,1,4.65186-1.92787v-2a8.58276,8.58276,0,1,0,8.57892,8.58276,8.58111,8.58111,0,0,0-8.57892-8.58276Z" style="fill:#9882bc"/><circle cx="110.98799" cy="139.5782" r="7.57895" style="fill:#d4c5e1"/><path d="M110.988,131.99544v1a6.58089,6.58089,0,1,1-4.65186,1.92787,6.552,6.552,0,0,1,4.65186-1.92787v-2a8.58276,8.58276,0,1,0,8.57892,8.58276,8.58111,8.58111,0,0,0-8.57892-8.58276Z" style="fill:#9882bc"/></g></svg>