<svg xmlns="http://www.w3.org/2000/svg" xmlns:xlink="http://www.w3.org/1999/xlink" viewBox="0 0 175.17099 149.17098"><defs><clipPath id="54d0d44e-b772-4d3a-af27-336ac6b915cc"><line x1="36.85403" y1="92.6194" x2="89.02221" y2="118.87429" style="fill:none"/></clipPath><clipPath id="ab3cf26b-4e8a-4d48-a117-b3de7f09c773"><line x1="116.33349" y1="77.68281" x2="88.73892" y2="118.82362" style="fill:none"/></clipPath><clipPath id="1ca21209-e24c-4825-aacd-523c3a443cd2"><path d="M139.03621,103.62527,88.7965,118.94034M42.357,118.15418l46.43953.78616" style="fill:none;clip-rule:evenodd"/></clipPath><clipPath id="9dd5121d-799e-4355-825c-8348d7f3188f"><path d="M65.84775,22.89877c0-.6897-.28547-1.393-.28547-2.10685,0-6.06791,4.053-13.0535,9.9575-15.54659A16.799,16.799,0,0,1,94.55054,9.03187,20.33558,20.33558,0,0,1,99.21124,16.682l-.01-.00052c3.86324-5.21365,13.97476-3.10367,13.13734,5.86352l-.0226.13521c3.92895.67345,10.85115,3.43908,10.85115,12.106,0,11.20139-11.15606,12.205-11.15606,12.205l-44.60943-.04825a12.17316,12.17316,0,0,1-4.933-1.04029A12.69341,12.69341,0,0,1,56.5074,34.68292c0-7.40748,4.25014-10.68619,9.34034-11.78835v.0042Z" style="fill:none;clip-rule:evenodd"/></clipPath><clipPath id="d03a20d1-8dc0-482d-aa9f-74145406d785"><line x1="90.31119" y1="51.74036" x2="90.31119" y2="89.47484" style="fill:none"/></clipPath><clipPath id="cb22ed46-e11e-46f1-8238-7d5ddc53f054"><path d="M36.06787,95.76394a3.14455,3.14455,0,1,0-3.14452-3.14454,3.14455,3.14455,0,0,0,3.14452,3.14454Z" style="fill:none;clip-rule:evenodd"/></clipPath><clipPath id="dcbe9aa4-7e22-4d05-8839-1ab6ef489b8b"><path d="M72.50408,118.67387a17.19621,17.19621,0,1,0,17.19637-17.14428,17.16055,17.16055,0,0,0-17.19637,17.14428" style="fill:none;clip-rule:evenodd"/></clipPath><clipPath id="90d28ce1-aefc-4e4d-a4ef-a727b4d7639d"><path d="M71.80036,118.67387a17.89992,17.89992,0,1,0,17.90008-17.848,17.86426,17.86426,0,0,0-17.90008,17.848Zm1.40744,0A16.49249,16.49249,0,1,1,89.70045,135.1144,16.45683,16.45683,0,0,1,73.2078,118.67387Z" style="fill:none"/></clipPath><clipPath id="c1cef325-18bc-400b-bf89-972b02671430"><path d="M94.10534,123.77708a1.23133,1.23133,0,1,1,1.23131,1.22363,1.2276,1.2276,0,0,1-1.23131-1.22363Zm-1.19911,0a2.43043,2.43043,0,1,0,2.43043-2.4228,2.42645,2.42645,0,0,0-2.43043,2.4228Zm9.11008-4.74142a11.36492,11.36492,0,0,1-20.66553,6.47283,2.39654,2.39654,0,0,0,.74-1.7314,2.4267,2.4267,0,0,0-2.43041-2.4228,2.40028,2.40028,0,0,0-.75418.12835.59956.59956,0,0,0,.37173,1.14,1.21529,1.21529,0,0,1,.97094,2.22012l-.55946.3068.341.53929A12.53791,12.53791,0,1,0,97.22259,108.374l-.51922-.31771-.30981.524a1.22753,1.22753,0,0,1-2.28822-.614,1.192,1.192,0,0,1,.05015-.31843.59956.59956,0,0,0-1.156-.31877,2.356,2.356,0,0,0-.0933.6372,2.42606,2.42606,0,0,0,4.13615,1.71758,11.279,11.279,0,0,1,4.97393,9.35186ZM97.767,107.96621a2.4269,2.4269,0,0,0-4.76777-.63634,2.35394,2.35394,0,0,0-.09306.63634,2.42664,2.42664,0,0,0,4.51952,1.22431,2.39827,2.39827,0,0,0,.34131-1.22431Zm-2.4304,1.22366a1.22759,1.22759,0,0,1-1.23131-1.22366,1.192,1.192,0,0,1,.05015-.31843,1.2278,1.2278,0,0,1,2.41246.31843,1.20149,1.20149,0,0,1-.17477.61465,1.22524,1.22524,0,0,1-1.05652.609ZM77.22991,123.77708a2.43043,2.43043,0,1,0,2.43043-2.4228,2.46162,2.46162,0,0,0-2.43043,2.4228Zm2.43043-1.22368a1.2276,1.2276,0,0,1,1.23131,1.22368,1.25215,1.25215,0,0,1-1.23131,1.22363,1.2239,1.2239,0,0,1,0-2.44732Z" style="fill:none"/></clipPath><clipPath id="8310e102-4660-42f8-81bf-39707599beec"><path d="M94.62551,121.99326,83.088,110.66162l-.84023.85549,11.53747,11.33164.84025-.85549Zm-.84025.85549.84025-.85549L83.088,110.66162l-.84023.85549,11.53747,11.33164Z" style="fill:none"/></clipPath><clipPath id="6ecee28a-b065-477d-ad92-14bda5371d8b"><path d="M81.89128,108.83543a1.59882,1.59882,0,1,1-1.59882,1.59883,1.59865,1.59865,0,0,1,1.59882-1.59883Z" style="fill:none;clip-rule:evenodd"/></clipPath><clipPath id="6e40d81b-768c-4d9b-b6cf-06e533302830"><path d="M80.892,110.43425a.99926.99926,0,1,1,.99926.99925.99883.99883,0,0,1-.99926-.99925Zm-1.1991,0a2.19837,2.19837,0,1,0,2.19836-2.19839,2.1982,2.1982,0,0,0-2.19836,2.19839Z" style="fill:none"/></clipPath><clipPath id="82486b0f-9b63-43d2-ac86-f6b2a4bdc48e"><path d="M83.85623,124.43349h.79941a.59955.59955,0,1,0,0-1.19909h-.79941a.59955.59955,0,1,0,0,1.19909Zm3.19763,0h.79941a.59955.59955,0,1,0,0-1.19909h-.79941a.59955.59955,0,1,0,0,1.19909Zm3.19763,0h.79941a.59955.59955,0,1,0,0-1.19909h-.79941a.59955.59955,0,1,0,0,1.19909Zm4.53106-12.35567v.79943a.59956.59956,0,1,0,1.19911,0v-.79943a.59956.59956,0,0,0-1.19911,0Zm0,3.19766v.7994a.59956.59956,0,1,0,1.19911,0v-.7994a.59956.59956,0,1,0-1.19911,0Zm0,3.19763v.7994a.59956.59956,0,1,0,1.19911,0v-.7994a.59956.59956,0,1,0-1.19911,0Z" style="fill:none"/></clipPath><clipPath id="efaa6bf1-2d2c-43cf-9e99-4173cdd0ef6b"><path d="M42.357,121.7064a3.14455,3.14455,0,1,0-3.14454-3.14456A3.14454,3.14454,0,0,0,42.357,121.7064Z" style="fill:none;clip-rule:evenodd"/></clipPath><clipPath id="bd0f429e-b402-4fb7-9e31-5273430ea53c"><path d="M116.25365,80.82738a3.14454,3.14454,0,1,0-3.14454-3.14456,3.14456,3.14456,0,0,0,3.14454,3.14456Z" style="fill:none;clip-rule:evenodd"/></clipPath><clipPath id="529ac6c5-fc0e-4131-ac55-acbb92a2f16c"><path d="M139.05158,106.76981a3.14453,3.14453,0,1,0-3.14455-3.14454,3.14454,3.14454,0,0,0,3.14455,3.14454Z" style="fill:none;clip-rule:evenodd"/></clipPath></defs><title>iot-gg-cores-icon</title><g id="94281674-d753-4ca4-b9d8-a1a2892465ac" data-name="devices"><path d="M151.62861,96.259l-1.5993,2.64647-3.79791-26.14413,3.60028-22.059,5.30957,17.5233ZM137.01679,120.44,113.83216,136.5874l-24.65558,4.72871,7.06769-4.74072,30.03345-11.34576a.67113.67113,0,0,0,.42847-.54573l3.04352-25.10806,18.76526,1.83662ZM29.28968,38.83852l2.267-2.41837L33.457,57.75152,20.51282,64.12388Zm19.32025-20.6139L74.12153,7.47075l2.06378,5.834L51.96369,31.3073,33.88453,33.9362Zm84.50922,25.15516-.00275-.00369-.14594-.20407-.00641-.00923-22.68512-21.0876,18.29065-2.09334,20.3609,27.93459-3.677,22.53087Zm-3.411,54.8479-6.53674-28.43322,9.38452-24.40075L144.9054,72.94415l3.94568,27.15617Zm-26.75262-4.21254,19.16693-22.8125L128.2898,98.031Zm-6.811,41.16779L82.313,118.58487l8.44165-10.04747L101.95173,95.21l26.47009,4.19684-2.99548,24.71376ZM26.59064,89.88664l6.69,23.50781L22.58771,93.9902Zm8.07507-33.64487L32.81245,35.44411l17.99329-2.616ZM51.94984,33.52621c1.24292,4.74442,5.24585,20.06171,6.14154,23.9529H35.43769Zm29.18579.9945L53.9878,31.46981,76.55836,14.69447ZM77.40974,12.75349l-1.941-5.48682,24.47-.22069Zm26.881-4.28271,22.1698,10.40575L109.19208,20.8526ZM91.7187,64.81365l29.50159,5.38248L101.91852,93.16931Zm-10.05121,52.46L71.223,89.25041l29.21625,5.67981L83.13941,115.522Zm-.32227,2.23924,13.0116,15.61462-28.61975-3.20326ZM50.33759,108.626l29.73059,10.19337L63.96229,131.626,36.82368,118.74277Zm-1.19116-.77934L35.9123,117.75381l-7.90521-27.7776ZM69.91175,89.56252l10.40851,27.929L51.46412,107.5983ZM59.31025,56.818c-1.10529-4.68346-5.13409-20.07832-6.1886-24.09879L80.53358,35.7987Zm.98987.90216L81.68043,36.54665l8.05664,26.54488Zm30.16,7.54692,10.19427,28.3418L71.42243,87.92627ZM70.40485,87.05643l-10.44916-28.038,29.48682,5.37971Zm9.34381-73.49958,22.892-5.61979,5.015,12.66992Zm27.12573,8.233L82.457,34.30372,77.87879,14.46455ZM34.69526,58.81712H58.4524L69.40021,88.19128,50.18708,106.975,27.88337,88.11833ZM122.04853,68.9874,91.21729,63.36115,82.79957,35.63156l25.8468-13.24612L131.72205,43.835ZM20.05207,65.84232l13.14081-6.47025L26.53058,88.03246l-4.22546,4.33165Zm21.07,56.42228,21.554,10.23123-4.36121,2.79236ZM85.9419,141.87477l-25.96313-6.063,4.23468-2.712,29.83313,3.339Zm61.90912-97.711L138.88764,31.866l8.06122,9.32169Zm8.61255,23.80978-8.27551-27.31037-.13391-.24377L129.38679,18.835l-.02588-.01939-.18463-.13943-.012-.00923-.01294-.00554-.00183-.00185L103.33131,6.54181l-.05908-.01385-.17914-.04155-.03235-.00739-28.532-.56974-.09607.01847-.1394.02031-.01849.01016-.01935.00369L47.95893,17.04636l-.22809.15882L28.21674,38.02686l-.1441.23824L18.71406,65.22457v.00092a.68764.68764,0,0,0-.03326.26685l-.00092.00832L21.09547,93.9348l.024.07849.04706.15514.00928.03323,13.77338,24.99358.01569.01755.01385.02678.00922.01755.13391.13757.00366.00371.00555.00737.00366.00185.001.00093L57.879,136.63634l.025.012.22345.10435.00366.00185,27.78223,6.48778.00739.00185.15143.01753h.00281l.12372-.012,28.026-5.37509a.66176.66176,0,0,0,.2558-.108l23.4173-16.30994.19025-.20316,14.75958-24.42383a.66856.66856,0,0,0,.09137-.26317l3.54773-28.315A.67566.67566,0,0,0,156.46357,67.97352Z" style="fill:#dbedfa"/><g style="clip-path:url(#54d0d44e-b772-4d3a-af27-336ac6b915cc)"><rect x="32.92335" y="88.68873" width="60.02953" height="34.11626" style="fill:#fff"/></g><line x1="36.85403" y1="92.6194" x2="89.02222" y2="118.87431" style="fill:none;stroke:#0e9fc7;stroke-linecap:round;stroke-linejoin:round;stroke-width:2px"/><g style="clip-path:url(#ab3cf26b-4e8a-4d48-a117-b3de7f09c773)"><rect x="84.80825" y="73.75216" width="35.45592" height="49.00216" style="fill:#fff"/></g><line x1="116.33349" y1="77.68281" x2="88.73892" y2="118.82362" style="fill:none;stroke:#0e9fc7;stroke-linecap:round;stroke-linejoin:round;stroke-width:2px"/><g style="clip-path:url(#1ca21209-e24c-4825-aacd-523c3a443cd2)"><rect x="38.42627" y="99.69459" width="104.54062" height="23.1764" style="fill:#fff"/></g><path d="M139.03621,103.62527,88.7965,118.94034M42.357,118.15418l46.43953.78616" style="fill:none;stroke:#0e9fc7;stroke-linecap:round;stroke-linejoin:round;stroke-width:2px"/><g style="clip-path:url(#9dd5121d-799e-4355-825c-8348d7f3188f)"><rect x="52.5767" y="-0.14454" width="74.52111" height="51.0664" style="fill:#fff"/></g><path d="M65.84775,22.89877c0-.68969-.28547-1.393-.28547-2.10684,0-6.06792,4.053-13.05352,9.9575-15.54661A16.799,16.799,0,0,1,94.55054,9.03187,20.33573,20.33573,0,0,1,99.21124,16.682l-.01-.00052c3.86325-5.21365,13.97476-3.10367,13.13734,5.86352l-.0226.13521c3.929.67346,10.85115,3.43908,10.85115,12.106,0,11.20139-11.15606,12.205-11.15606,12.205L67.40166,46.943a12.17358,12.17358,0,0,1-4.933-1.04032A12.69341,12.69341,0,0,1,56.5074,34.68292c0-7.40748,4.25014-10.68619,9.34034-11.78835v.0042Z" style="fill:none;stroke:#0e9fc7;stroke-linecap:round;stroke-linejoin:round;stroke-width:2px"/><g style="clip-path:url(#d03a20d1-8dc0-482d-aa9f-74145406d785)"><rect x="86.38052" y="47.80971" width="7.86135" height="45.59583" style="fill:#fff"/></g><line x1="90.31121" y1="51.74036" x2="90.31121" y2="89.47484" style="fill:none;stroke:#0e9fc7;stroke-linecap:round;stroke-linejoin:round;stroke-width:2px;stroke-dasharray:1,4"/><g style="clip-path:url(#cb22ed46-e11e-46f1-8238-7d5ddc53f054)"><rect x="28.99265" y="85.54419" width="14.15043" height="14.15041" style="fill:#fff"/></g><path d="M36.06787,95.76394a3.14455,3.14455,0,1,0-3.14452-3.14456,3.14455,3.14455,0,0,0,3.14452,3.14456Z" style="fill:none;stroke:#0e9fc7;stroke-miterlimit:10;stroke-width:2px"/><circle cx="89.87705" cy="118.47565" r="27.7822" style="fill:#daedfa;stroke:#0e9fc7;stroke-linecap:round;stroke-linejoin:round;stroke-width:2px"/><g style="clip-path:url(#dcbe9aa4-7e22-4d05-8839-1ab6ef489b8b)"><rect x="68.5734" y="97.59891" width="42.2536" height="42.14987" style="fill:#addccf"/></g><g style="clip-path:url(#90d28ce1-aefc-4e4d-a4ef-a727b4d7639d)"><rect x="67.8697" y="96.89521" width="43.66103" height="43.5573" style="fill:#3cb197"/></g><g style="clip-path:url(#c1cef325-18bc-400b-bf89-972b02671430)"><rect x="73.29923" y="101.61279" width="33.84684" height="33.85915" style="fill:#3cb197"/></g><g style="clip-path:url(#8310e102-4660-42f8-81bf-39707599beec)"><rect x="78.31712" y="106.73094" width="20.23905" height="20.04848" style="fill:#3cb197"/></g><g style="clip-path:url(#6ecee28a-b065-477d-ad92-14bda5371d8b)"><rect x="76.36178" y="104.90475" width="11.05899" height="11.05898" style="fill:#3cb197"/></g><path d="M81.89129,108.83543a1.59882,1.59882,0,1,1-1.59883,1.5988,1.59862,1.59862,0,0,1,1.59883-1.5988Z" style="fill:none;stroke:#fff;stroke-miterlimit:10"/><g style="clip-path:url(#6e40d81b-768c-4d9b-b6cf-06e533302830)"><rect x="75.76223" y="104.30522" width="12.25811" height="12.25807" style="fill:#3cb197"/></g><g style="clip-path:url(#82486b0f-9b63-43d2-ac86-f6b2a4bdc48e)"><rect x="79.326" y="107.54759" width="20.58635" height="20.8166" style="fill:#3cb197"/></g><g style="clip-path:url(#efaa6bf1-2d2c-43cf-9e99-4173cdd0ef6b)"><rect x="35.28176" y="111.48662" width="14.15043" height="14.15043" style="fill:#fff"/></g><path d="M42.357,121.7064a3.14455,3.14455,0,1,0-3.14454-3.14456A3.14455,3.14455,0,0,0,42.357,121.7064Z" style="fill:none;stroke:#0e9fc7;stroke-miterlimit:10;stroke-width:2px"/><g style="clip-path:url(#bd0f429e-b402-4fb7-9e31-5273430ea53c)"><rect x="109.17843" y="70.6076" width="14.15043" height="14.15043" style="fill:#fff"/></g><path d="M116.25366,80.82738a3.14454,3.14454,0,1,0-3.14455-3.14456,3.14454,3.14454,0,0,0,3.14455,3.14456Z" style="fill:none;stroke:#0e9fc7;stroke-miterlimit:10;stroke-width:2px"/><g style="clip-path:url(#529ac6c5-fc0e-4131-ac55-acbb92a2f16c)"><rect x="131.97636" y="96.55005" width="14.15043" height="14.15043" style="fill:#fff"/></g><path d="M139.05158,106.76983a3.14454,3.14454,0,1,0-3.14455-3.14456,3.14454,3.14454,0,0,0,3.14455,3.14456Z" style="fill:none;stroke:#0e9fc7;stroke-miterlimit:10;stroke-width:2px"/></g></svg>